<svg width="24" height="24" viewBox="0 0 24 24" fill="none" xmlns="http://www.w3.org/2000/svg">
<g clip-path="url(#clip0_63_1909)">
<path d="M6.65759 0.00310898C6.67105 0.0197909 6.68635 0.0348881 6.70322 0.048109C6.95322 0.200609 7.04134 0.388734 6.98259 0.629983C6.92759 0.857483 6.73259 0.996858 6.45197 0.997483C5.32009 1.00061 4.18822 0.997483 3.05635 0.997483C2.8926 0.997483 2.72885 0.997483 2.56447 0.997483C1.64572 1.00936 1.0051 1.64373 1.00197 2.55998C0.995725 3.84811 1.00197 5.13623 1.00197 6.42435C1.00197 6.82373 0.72635 7.06123 0.376976 6.97873C0.193851 6.9356 0.110098 6.78373 0.00634766 6.6531V2.06248C0.0894726 2.01936 0.0725973 1.92936 0.0919723 1.86123C0.289472 1.14811 0.721349 0.62936 1.3676 0.276235C1.60447 0.146235 1.87385 0.11311 2.1176 0.000610352L6.65759 0.00310898Z" fill="white"/>
<path d="M0.00298691 17.3425C0.0195107 17.3289 0.034592 17.3136 0.0479889 17.2969C0.200489 17.0469 0.387364 16.9588 0.629864 17.0175C0.857364 17.0719 0.996739 17.2631 0.997364 17.5475C0.999864 18.7104 0.999864 19.8735 0.997364 21.0369C0.997364 21.17 0.997364 21.3025 0.997364 21.435C1.00924 22.3538 1.64361 22.9975 2.55986 22.9975C3.84799 23.0038 5.13611 22.9975 6.42424 22.9975C6.82424 22.9975 7.06111 23.2738 6.97799 23.6225C6.93424 23.8056 6.78299 23.8887 6.65236 23.9931H2.06236C2.04424 23.9194 1.97361 23.9394 1.92799 23.9269C0.953403 23.6594 0.332779 23.039 0.0661125 22.0656C0.0536125 22.02 0.0742383 21.95 0.000488281 21.9313L0.00298691 17.3425Z" fill="white"/>
<path d="M23.9997 6.65751C23.9832 6.67091 23.9681 6.68599 23.9547 6.70251C23.8016 6.95251 23.6147 7.04064 23.3729 6.98251C23.146 6.92814 23.006 6.73251 23.0054 6.45251C23.0029 5.30501 23.0029 4.15752 23.0054 3.01002C23.0054 2.86939 23.0054 2.72877 23.0054 2.58814C22.9972 1.63939 22.3647 1.00314 21.4166 1.00002C20.136 0.995643 18.8541 1.00002 17.576 1.00002C17.176 1.00002 16.9391 0.724393 17.021 0.375019C17.0648 0.191894 17.2148 0.106894 17.3473 0.00439453H21.8472C21.8622 0.0187695 21.8754 0.0437684 21.8922 0.0462684C22.8991 0.215643 23.5416 0.808768 23.8872 1.75189C23.931 1.87127 23.9122 2.01002 24.0029 2.11314L23.9997 6.65751Z" fill="white"/>
<path d="M17.3425 24C17.3291 23.9835 17.3141 23.9684 17.2975 23.955C17.0475 23.8025 16.9594 23.6156 17.0169 23.3731C17.0713 23.1456 17.2632 23.0063 17.5469 23.0056C18.7025 23.0056 19.8594 23.0056 21.0132 23.0056C21.1538 23.0056 21.2944 23.0056 21.435 23.0056C22.3538 22.9931 22.9975 22.3588 22.9975 21.4431C23.0044 20.155 22.9975 18.8669 22.9975 17.5788C22.9975 17.1781 23.2725 16.9419 23.6225 17.025C23.8057 17.0681 23.89 17.2188 23.9932 17.3506V21.9375C23.91 21.9806 23.9269 22.0706 23.9069 22.1388C23.6532 23.0194 23.0844 23.5938 22.2238 23.8919C22.0988 23.9363 21.9525 23.9144 21.8375 23.9994L17.3425 24Z" fill="white"/>
<path d="M11.9999 14.0037H18.138C18.8949 14.0037 19.6518 14.0037 20.4086 14.0037C20.7736 14.0037 20.9949 14.1912 20.998 14.4924C21.0011 14.7937 20.768 14.9968 20.398 14.9981C20.0155 14.9981 19.6324 15.0093 19.2505 14.9943C19.0549 14.9862 18.9843 15.0237 18.9899 15.2443C19.0068 15.9624 18.998 16.6818 18.9955 17.3993C18.9924 18.3768 18.3786 18.9943 17.4036 18.9949C13.8036 18.9949 10.2034 18.9949 6.60301 18.9949C5.62613 18.9949 5.01113 18.3781 5.00801 17.4031C5.00801 16.6687 5.00238 15.9343 5.01176 15.2006C5.01176 15.0337 4.96551 14.9918 4.80363 14.9968C4.39801 15.0081 3.99113 15.0018 3.58551 14.9999C3.23363 14.9999 3.00426 14.7981 3.00488 14.4999C3.00551 14.2018 3.22801 14.0074 3.59051 14.0074C6.39259 14.0024 9.19572 14.0012 11.9999 14.0037ZM12.0236 14.9993C10.0861 14.9993 8.14863 14.9993 6.21551 14.9949C6.04238 14.9949 5.99551 15.0324 5.99863 15.2093C6.00988 15.9431 6.00238 16.6768 6.00363 17.4112C6.00363 17.8106 6.19113 17.9981 6.59301 17.9981H17.4136C17.8118 17.9981 17.9986 17.8106 17.9999 17.4081C17.9999 16.6743 17.993 15.9399 18.0055 15.2062C18.0055 15.0231 17.9518 14.9949 17.7849 14.9956C15.8636 15.0014 13.9426 15.0029 12.0218 14.9999L12.0236 14.9993Z" fill="white"/>
<path d="M12.0001 5.00566C13.8122 5.00566 15.6246 5.00566 17.4376 5.00566C18.2107 5.00566 18.7882 5.45316 18.9569 6.17129C18.9821 6.28558 18.9938 6.40241 18.9919 6.51941C18.9944 7.824 18.9944 9.12837 18.9919 10.4325C18.9919 10.8494 18.6707 11.0969 18.3188 10.9644C18.1101 10.8863 17.9982 10.7007 17.9976 10.4207C17.9976 9.23316 17.9976 8.04566 17.9976 6.85816C17.9976 6.08004 17.9169 5.99941 17.1394 5.99941H6.66695C6.1582 5.99941 6.00195 6.15879 6.00133 6.67504C6.00133 7.92504 6.00133 9.17504 6.00133 10.425C6.00133 10.7263 5.87633 10.9094 5.6307 10.9763C5.31133 11.0638 5.01882 10.8463 5.01007 10.4988C5.00007 10.0538 5.00632 9.60816 5.00632 9.16316C5.00632 8.30379 5.00632 7.44504 5.00632 6.58566C5.01007 5.62379 5.62632 5.00691 6.58945 5.00504C8.39361 5.0017 10.1972 5.00191 12.0001 5.00566Z" fill="white"/>
</g>
<defs>
<clipPath id="clip0_63_1909">
<rect width="24" height="24" fill="white"/>
</clipPath>
</defs>
</svg>
