<svg width="24" height="24" viewBox="0 0 24 24" fill="none" xmlns="http://www.w3.org/2000/svg">
<path d="M20.2067 23.9954C20.0067 23.8539 19.9476 23.6604 19.9567 23.4183C19.9722 23.0058 19.9567 22.5922 19.9642 22.1797C19.9642 22.0387 19.9306 21.9882 19.7821 21.9932C19.4556 22.0042 19.128 22.0007 18.8005 21.9932C18.5125 21.9882 18.374 21.8501 18.364 21.5611C18.357 21.3586 18.364 21.1561 18.364 20.9535V11.4653C18.364 10.9113 18.4515 10.8223 18.996 10.8223C19.2461 10.8223 19.4961 10.8118 19.7461 10.8258C19.9166 10.8358 19.9737 10.7918 19.9697 10.6097C19.9567 10.0492 19.9637 9.4881 19.9652 8.92703C19.9652 8.61199 20.1152 8.42697 20.3652 8.42947C20.6152 8.43197 20.7653 8.62199 20.7653 8.93253C20.7653 9.4781 20.7788 10.0237 20.7598 10.5682C20.7518 10.7938 20.8288 10.8383 21.0308 10.8263C21.3103 10.8103 21.5914 10.8193 21.8719 10.8233C22.2104 10.8278 22.36 10.9733 22.36 11.3073C22.36 14.7124 22.36 18.1173 22.36 21.5221C22.36 21.8486 22.2154 21.9917 21.8909 21.9957C21.5664 21.9997 21.2518 22.0027 20.9328 21.9957C20.7973 21.9917 20.7608 22.0367 20.7633 22.1677C20.7708 22.5882 20.7558 23.0093 20.7698 23.4298C20.7778 23.6769 20.7092 23.8679 20.4932 23.9974L20.2067 23.9954ZM19.1631 16.4215C19.1631 17.948 19.1621 19.4747 19.1601 21.0015C19.1601 21.1426 19.1796 21.2046 19.3451 21.2016C20.0227 21.1911 20.7002 21.1931 21.3778 21.2016C21.5203 21.2016 21.5604 21.1661 21.5604 21.0205C21.5557 17.9512 21.5557 14.8819 21.5604 11.8129C21.5604 11.6519 21.5103 11.6199 21.3603 11.6214C20.6982 11.6284 20.0362 11.6314 19.3741 11.6214C19.1941 11.6179 19.1571 11.6714 19.1581 11.8434C19.1656 13.3676 19.1631 14.8943 19.1631 16.4215Z" fill="white"/>
<path d="M1.60015 8.05107V3.00044C1.60015 2.56789 1.72566 2.44087 2.15321 2.44037C2.44175 2.44037 2.73029 2.43187 3.01782 2.44387C3.16234 2.44987 3.20084 2.40937 3.19884 2.26385C3.18984 1.67978 3.19585 1.0957 3.19485 0.511132C3.19485 0.33561 3.24985 0.189091 3.40987 0.0995795C3.47083 0.0633816 3.54086 0.0453307 3.61172 0.0475451C3.68258 0.0497596 3.75134 0.0721475 3.80992 0.112081C3.95994 0.204093 3.99694 0.348111 3.99594 0.512131C3.99294 1.0577 4.01095 1.60327 3.98794 2.14784C3.97694 2.40437 4.06445 2.45938 4.29698 2.44287C4.56802 2.42337 4.84205 2.43587 5.11459 2.43887C5.44113 2.44237 5.58765 2.58339 5.59265 2.90643C5.59815 3.27248 5.59265 3.63852 5.59265 4.00657C5.59265 7.01361 5.59265 10.0205 5.59265 13.0272C5.59265 13.5133 5.49263 13.6153 5.00457 13.6153C4.73204 13.6153 4.459 13.6243 4.18697 13.6118C4.03395 13.6048 3.98694 13.6493 3.99044 13.8048C4.00045 14.2488 3.99594 14.6929 3.99044 15.137C3.99044 15.433 3.83592 15.614 3.59589 15.6145C3.35586 15.615 3.19584 15.4275 3.19584 15.1385C3.19234 14.6884 3.19034 14.2348 3.19584 13.7833C3.19584 13.6528 3.16434 13.6078 3.02882 13.6123C2.71729 13.6218 2.40575 13.6163 2.09421 13.6123C1.73966 13.6123 1.59914 13.4718 1.59864 13.1172C1.59764 11.4297 1.59815 9.74095 1.60015 8.05107ZM2.40025 8.02407C2.40025 9.5576 2.40025 11.0911 2.40025 12.6246C2.40025 12.7417 2.39174 12.8247 2.56227 12.8247C3.25535 12.8142 3.94844 12.8177 4.64153 12.8247C4.76204 12.8247 4.79855 12.7947 4.79805 12.6702C4.79505 9.58677 4.79505 6.50305 4.79805 3.41899C4.79805 3.27198 4.75104 3.23797 4.61152 3.23947C3.94994 3.24647 3.28786 3.24997 2.62628 3.23947C2.43925 3.23597 2.39574 3.28948 2.39675 3.4715C2.40025 4.98619 2.39624 6.50488 2.39624 8.02307L2.40025 8.02407Z" fill="white"/>
<path d="M7.19106 13.2126C7.19106 11.5374 7.19106 9.8622 7.19106 8.18699C7.19106 7.75094 7.31057 7.63142 7.74113 7.63042C8.02166 7.63042 8.3027 7.62142 8.58273 7.63392C8.74275 7.64142 8.79426 7.59892 8.79126 7.4314C8.78026 6.86283 8.78576 6.29375 8.78776 5.72518C8.78776 5.41814 8.92628 5.24762 9.17131 5.24162C9.42484 5.23512 9.58286 5.41714 9.58436 5.72668C9.58686 6.30326 9.59086 6.87983 9.58086 7.4564C9.57836 7.60642 9.62236 7.63892 9.76338 7.63392C10.0749 7.62292 10.3865 7.62842 10.698 7.63142C11.0245 7.63392 11.1781 7.78144 11.1781 8.09798C11.1781 11.5104 11.1781 14.923 11.1781 18.3358C11.1781 18.6588 11.028 18.8033 10.704 18.8058C10.3925 18.8058 10.0804 18.8163 9.76938 18.8018C9.60786 18.7948 9.57936 18.8518 9.58186 18.9988C9.59036 19.4584 9.58836 19.918 9.58186 20.3775C9.58186 20.586 9.48185 20.7366 9.26932 20.7881C9.07879 20.8346 8.93828 20.7551 8.83476 20.5945C8.78026 20.51 8.78476 20.416 8.78476 20.3235C8.78476 19.895 8.77176 19.4659 8.78926 19.0378C8.79776 18.8333 8.72875 18.7908 8.53923 18.8018C8.25969 18.8183 7.97816 18.8068 7.69762 18.8058C7.31157 18.8058 7.18506 18.6783 7.18506 18.2848C7.18839 16.5942 7.19039 14.9035 7.19106 13.2126ZM7.99116 13.2396C7.99116 14.7663 7.99366 16.293 7.98766 17.8197C7.98766 17.9697 8.02217 18.0152 8.17768 18.0132C8.8551 18.0036 9.53269 18.0036 10.2104 18.0132C10.3605 18.0132 10.387 17.9677 10.387 17.8292C10.383 14.7598 10.383 11.6908 10.387 8.62205C10.387 8.44602 10.3245 8.42202 10.1729 8.42502C9.52635 8.43252 8.87927 8.44002 8.23369 8.42202C8.01366 8.41552 7.98366 8.49003 7.98616 8.68305C7.99366 10.2012 7.99016 11.7209 7.99016 13.2396H7.99116Z" fill="white"/>
<path d="M12.7732 11.6225C12.7732 9.93995 12.7732 8.25641 12.7732 6.57187C12.7732 6.16682 12.9012 6.0363 13.2988 6.0358C13.5873 6.0358 13.8758 6.0263 14.1634 6.0393C14.3219 6.0463 14.3754 6.0113 14.3714 5.83928C14.3594 5.2627 14.3649 4.68613 14.3679 4.10956C14.3679 3.84603 14.4964 3.67901 14.7059 3.6485C14.968 3.6105 15.161 3.78402 15.1635 4.07556C15.1685 4.66013 15.1705 5.2447 15.1635 5.82877C15.161 5.98629 15.1925 6.0468 15.3635 6.0388C15.6745 6.0238 15.9866 6.0323 16.2981 6.0353C16.6097 6.0383 16.7577 6.17632 16.7622 6.48786C16.7677 6.8699 16.7622 7.25145 16.7622 7.6335V16.6346C16.7622 17.1012 16.6507 17.2122 16.1851 17.2122C15.9046 17.2122 15.624 17.2202 15.344 17.2092C15.201 17.2037 15.158 17.2432 15.1615 17.3897C15.1715 17.8338 15.1665 18.2783 15.1645 18.7224C15.1645 19.0224 15.0175 19.2004 14.7764 19.2049C14.5354 19.2094 14.3694 19.0219 14.3674 18.7139C14.3674 18.2853 14.3594 17.8568 14.3709 17.4287C14.3754 17.2632 14.3474 17.1947 14.1604 17.2072C13.8733 17.2267 13.5843 17.2132 13.2958 17.2122C12.9092 17.2122 12.7732 17.0777 12.7732 16.6946C12.7729 15.0044 12.7729 13.3137 12.7732 11.6225ZM13.5703 11.627C13.5703 13.1537 13.5703 14.6804 13.5668 16.2071C13.5668 16.3606 13.5903 16.4231 13.7668 16.4201C14.4364 16.4091 15.1065 16.4106 15.7761 16.4201C15.9316 16.4201 15.9681 16.3771 15.9681 16.2256C15.9637 13.1565 15.9637 10.0875 15.9681 7.01842C15.9681 6.8564 15.9136 6.8304 15.7681 6.8319C15.106 6.8389 14.4439 6.8419 13.7823 6.8319C13.6068 6.8289 13.5643 6.8744 13.5653 7.04943C13.5733 8.57362 13.5703 10.1013 13.5703 11.627Z" fill="white"/>
</svg>
