<svg width="38" height="33" viewBox="0 0 38 33" fill="none" xmlns="http://www.w3.org/2000/svg">
<rect x="4.69482" y="3.43225" width="0.615795" height="2.52446" fill="url(#paint0_linear_287_253)"/>
<rect x="3.46289" y="5.95667" width="3.07897" height="21.585" fill="url(#paint1_linear_287_253)"/>
<rect x="4.69482" y="27.5417" width="0.615795" height="1.79161" fill="url(#paint2_linear_287_253)"/>
<rect x="27.4155" y="6.91138" width="0.615795" height="2.52446" fill="url(#paint3_linear_287_253)"/>
<rect x="26.1836" y="9.43579" width="3.07897" height="16.3017" fill="url(#paint4_linear_287_253)"/>
<rect x="27.4155" y="25.7375" width="0.615795" height="1.79161" fill="url(#paint5_linear_287_253)"/>
<rect x="33.3789" y="2.75" width="0.615795" height="2.52446" fill="url(#paint6_linear_287_253)"/>
<rect x="32.147" y="5.27441" width="3.07897" height="16.3017" fill="url(#paint7_linear_287_253)"/>
<rect x="33.3789" y="21.5762" width="0.615795" height="1.79161" fill="url(#paint8_linear_287_253)"/>
<rect x="10.6553" y="4.31799" width="0.615795" height="2.05494" fill="url(#paint9_linear_287_253)"/>
<rect x="9.42334" y="6.37292" width="3.07897" height="5.0447" fill="url(#paint10_linear_287_253)"/>
<rect x="10.6553" y="11.4176" width="0.615795" height="2.82268" fill="url(#paint11_linear_287_253)"/>
<rect x="15.6836" y="10.0603" width="0.615795" height="2.05494" fill="url(#paint12_linear_287_253)"/>
<rect x="14.4521" y="12.1152" width="3.07897" height="8.79378" fill="url(#paint13_linear_287_253)"/>
<rect x="15.6836" y="20.9091" width="0.615795" height="2.82268" fill="url(#paint14_linear_287_253)"/>
<rect x="21.4585" y="17.6118" width="0.615795" height="2.05494" fill="url(#paint15_linear_287_253)"/>
<rect x="20.2266" y="19.6667" width="3.07897" height="5.0447" fill="url(#paint16_linear_287_253)"/>
<rect x="21.4585" y="24.7114" width="0.615795" height="2.82268" fill="url(#paint17_linear_287_253)"/>
<path fill-rule="evenodd" clip-rule="evenodd" d="M0 0V33H0.916667H37.5833V32.0833H0.916667V0H0Z" fill="url(#paint18_linear_287_253)"/>
<defs>
<linearGradient id="paint0_linear_287_253" x1="4.69482" y1="4.69448" x2="5.31062" y2="4.69448" gradientUnits="userSpaceOnUse">
<stop stop-color="#6D55FF"/>
<stop offset="1" stop-color="#48BDFF"/>
</linearGradient>
<linearGradient id="paint1_linear_287_253" x1="3.46289" y1="16.7492" x2="6.54186" y2="16.7492" gradientUnits="userSpaceOnUse">
<stop stop-color="#6D55FF"/>
<stop offset="1" stop-color="#48BDFF"/>
</linearGradient>
<linearGradient id="paint2_linear_287_253" x1="4.69482" y1="28.4376" x2="5.31062" y2="28.4376" gradientUnits="userSpaceOnUse">
<stop stop-color="#6D55FF"/>
<stop offset="1" stop-color="#48BDFF"/>
</linearGradient>
<linearGradient id="paint3_linear_287_253" x1="27.4155" y1="8.17361" x2="28.0313" y2="8.17361" gradientUnits="userSpaceOnUse">
<stop stop-color="#6D55FF"/>
<stop offset="1" stop-color="#48BDFF"/>
</linearGradient>
<linearGradient id="paint4_linear_287_253" x1="26.1836" y1="17.5867" x2="29.2626" y2="17.5867" gradientUnits="userSpaceOnUse">
<stop stop-color="#6D55FF"/>
<stop offset="1" stop-color="#48BDFF"/>
</linearGradient>
<linearGradient id="paint5_linear_287_253" x1="27.4155" y1="26.6334" x2="28.0313" y2="26.6334" gradientUnits="userSpaceOnUse">
<stop stop-color="#6D55FF"/>
<stop offset="1" stop-color="#48BDFF"/>
</linearGradient>
<linearGradient id="paint6_linear_287_253" x1="33.3789" y1="4.01223" x2="33.9947" y2="4.01223" gradientUnits="userSpaceOnUse">
<stop stop-color="#6D55FF"/>
<stop offset="1" stop-color="#48BDFF"/>
</linearGradient>
<linearGradient id="paint7_linear_287_253" x1="32.147" y1="13.4253" x2="35.2259" y2="13.4253" gradientUnits="userSpaceOnUse">
<stop stop-color="#6D55FF"/>
<stop offset="1" stop-color="#48BDFF"/>
</linearGradient>
<linearGradient id="paint8_linear_287_253" x1="33.3789" y1="22.472" x2="33.9947" y2="22.472" gradientUnits="userSpaceOnUse">
<stop stop-color="#6D55FF"/>
<stop offset="1" stop-color="#48BDFF"/>
</linearGradient>
<linearGradient id="paint9_linear_287_253" x1="10.6553" y1="5.34546" x2="11.2711" y2="5.34546" gradientUnits="userSpaceOnUse">
<stop stop-color="#6D55FF"/>
<stop offset="1" stop-color="#48BDFF"/>
</linearGradient>
<linearGradient id="paint10_linear_287_253" x1="9.42334" y1="8.89528" x2="12.5023" y2="8.89528" gradientUnits="userSpaceOnUse">
<stop stop-color="#6D55FF"/>
<stop offset="1" stop-color="#48BDFF"/>
</linearGradient>
<linearGradient id="paint11_linear_287_253" x1="10.6553" y1="12.8289" x2="11.2711" y2="12.8289" gradientUnits="userSpaceOnUse">
<stop stop-color="#6D55FF"/>
<stop offset="1" stop-color="#48BDFF"/>
</linearGradient>
<linearGradient id="paint12_linear_287_253" x1="15.6836" y1="11.0878" x2="16.2994" y2="11.0878" gradientUnits="userSpaceOnUse">
<stop stop-color="#6D55FF"/>
<stop offset="1" stop-color="#48BDFF"/>
</linearGradient>
<linearGradient id="paint13_linear_287_253" x1="14.4521" y1="16.5121" x2="17.5311" y2="16.5121" gradientUnits="userSpaceOnUse">
<stop stop-color="#6D55FF"/>
<stop offset="1" stop-color="#48BDFF"/>
</linearGradient>
<linearGradient id="paint14_linear_287_253" x1="15.6836" y1="22.3204" x2="16.2994" y2="22.3204" gradientUnits="userSpaceOnUse">
<stop stop-color="#6D55FF"/>
<stop offset="1" stop-color="#48BDFF"/>
</linearGradient>
<linearGradient id="paint15_linear_287_253" x1="21.4585" y1="18.6393" x2="22.0743" y2="18.6393" gradientUnits="userSpaceOnUse">
<stop stop-color="#6D55FF"/>
<stop offset="1" stop-color="#48BDFF"/>
</linearGradient>
<linearGradient id="paint16_linear_287_253" x1="20.2266" y1="22.1891" x2="23.3055" y2="22.1891" gradientUnits="userSpaceOnUse">
<stop stop-color="#6D55FF"/>
<stop offset="1" stop-color="#48BDFF"/>
</linearGradient>
<linearGradient id="paint17_linear_287_253" x1="21.4585" y1="26.1228" x2="22.0743" y2="26.1228" gradientUnits="userSpaceOnUse">
<stop stop-color="#6D55FF"/>
<stop offset="1" stop-color="#48BDFF"/>
</linearGradient>
<linearGradient id="paint18_linear_287_253" x1="-2.45015e-07" y1="16.5" x2="37.5833" y2="16.5" gradientUnits="userSpaceOnUse">
<stop stop-color="#0066FF"/>
<stop offset="1" stop-color="#00D1FF"/>
</linearGradient>
</defs>
</svg>
