<svg width="24" height="24" viewBox="0 0 24 24" fill="none" xmlns="http://www.w3.org/2000/svg">
<path d="M9.39201 3.00004C12.3045 3.00004 15.2168 3.00129 18.1289 3.00379C18.3064 3.00379 18.3708 2.9813 18.387 2.7763C18.471 2.10591 18.8102 1.49371 19.3341 1.06709C19.858 0.640461 20.5262 0.432259 21.1997 0.4858C21.8732 0.539342 22.5001 0.850506 22.95 1.35455C23.3999 1.85859 23.6381 2.51669 23.6151 3.19192C23.5376 4.33317 22.7051 5.29504 21.5526 5.55692C21.4045 5.59067 21.3714 5.63942 21.3714 5.77942C21.3756 8.11275 21.3756 10.4478 21.3714 12.7844C21.3689 12.8377 21.3792 12.8908 21.4017 12.9393C21.4241 12.9877 21.4579 13.03 21.5001 13.0625C23.3276 14.7169 24.0339 16.7669 23.4045 19.1482C22.7751 21.5294 21.1651 23.0069 18.7551 23.5082C15.3914 24.2075 12.0851 21.7838 11.677 18.3832C11.6308 18.0013 11.6308 18.0013 11.252 18.0013C7.7091 18.0005 4.16472 18 0.618889 18C0.431389 18 0.374512 17.9682 0.374512 17.7657C0.381178 12.9244 0.381178 8.08296 0.374512 3.24129C0.374512 3.02379 0.437011 2.99567 0.632011 2.99567C3.55159 3.00359 6.4716 3.00504 9.39201 3.00004ZM20.6214 12.4244C20.6214 10.1744 20.6214 7.95004 20.6214 5.72567C20.6214 5.61379 20.5826 5.58754 20.4783 5.56817C20.1544 5.5128 19.8469 5.38645 19.5776 5.19817C19.4564 5.1113 19.3901 5.12754 19.2933 5.22817C18.6349 5.89484 17.9722 6.55734 17.3051 7.21567C17.1895 7.33005 17.1426 7.42067 17.1976 7.59379C17.2622 7.80461 17.2593 8.03037 17.1891 8.2394C17.1189 8.44844 16.9851 8.63028 16.8064 8.75942C16.4314 9.04254 16.017 9.08692 15.5989 8.86317C15.1808 8.63942 14.9114 8.24817 15.0208 7.78817C15.117 7.39129 14.947 7.20442 14.7083 6.99129C14.6196 6.91344 14.5361 6.82993 14.4583 6.74129C14.4323 6.70335 14.393 6.67656 14.3482 6.66626C14.3034 6.65595 14.2563 6.66288 14.2164 6.68567C14.0043 6.77429 13.7661 6.77698 13.552 6.69317C13.4176 6.63817 13.3426 6.67567 13.2514 6.76879C12.7689 7.25817 12.2889 7.75004 11.7914 8.22379C11.6039 8.40379 11.4651 8.56567 11.6039 8.83317C11.6182 8.87793 11.6227 8.92526 11.617 8.97192C11.6229 9.20795 11.555 9.43994 11.4227 9.63547C11.2903 9.831 11.1002 9.98031 10.8789 10.0625C10.6566 10.1418 10.4149 10.1491 10.1882 10.0834C9.9615 10.0178 9.76117 9.88247 9.6156 9.69668C9.47003 9.51088 9.38659 9.284 9.37709 9.04816C9.36758 8.81231 9.43249 8.57946 9.56264 8.38254C9.68939 8.18356 9.87755 8.03132 10.0986 7.94888C10.3196 7.86643 10.5615 7.85829 10.7876 7.92567C10.9508 7.97629 11.0376 7.93879 11.147 7.82754C11.6608 7.30338 12.1799 6.78442 12.7045 6.27067C12.817 6.16067 12.8458 6.07129 12.7983 5.91004C12.6601 5.44192 12.8108 5.04255 13.1864 4.74505C13.562 4.44755 13.9739 4.41317 14.392 4.63504C14.8101 4.85692 15.0839 5.24754 14.9745 5.70754C14.8789 6.11379 15.0539 6.30567 15.3001 6.52004C15.3824 6.59194 15.4597 6.66941 15.5314 6.75192C15.5563 6.79086 15.595 6.81895 15.6397 6.83054C15.6845 6.84213 15.732 6.83637 15.7726 6.81442C15.9925 6.7239 16.2389 6.72211 16.4601 6.80942C16.5037 6.83216 16.554 6.83868 16.602 6.8278C16.6499 6.81693 16.6925 6.78937 16.722 6.75004C17.4095 6.05629 18.0997 5.36609 18.7926 4.67942C18.8714 4.60067 18.8889 4.54942 18.8201 4.44942C18.7136 4.30535 18.6293 4.14606 18.5701 3.97692C18.5145 3.78942 18.427 3.74817 18.2414 3.74817C12.6189 3.75359 6.99659 3.75359 1.37451 3.74817C1.16514 3.74817 1.12451 3.80129 1.12451 4.00192C1.13076 8.33525 1.13076 12.6686 1.12451 17.0019C1.12451 17.2107 1.17701 17.2519 1.37451 17.2519C4.6466 17.2453 7.91847 17.2436 11.1901 17.2469C11.6208 17.2469 11.6201 17.2469 11.6776 16.8319C11.6843 16.7856 11.6935 16.7397 11.7051 16.6944C11.7389 16.5588 11.7245 16.4744 11.5464 16.4938C11.392 16.5107 11.2339 16.4825 11.0783 16.5013C10.8908 16.5244 10.8676 16.445 10.8689 16.2807C10.8751 14.9219 10.877 13.5632 10.8689 12.2044C10.8689 12.0169 10.9264 11.99 11.0908 11.995C11.4889 12.0063 11.887 11.995 12.2858 11.9994C12.557 11.9994 12.8289 12.0082 13.0983 12.0132C13.1489 12.29 13.1126 12.5694 13.1195 12.8482C13.1264 13.1063 13.1195 13.365 13.1195 13.6607C14.957 11.625 17.9564 10.9494 20.6214 12.4269V12.4244ZM17.6308 22.8619C17.7239 22.8619 17.8183 22.8663 17.9114 22.8619C18.0364 22.8538 18.1614 22.8407 18.2864 22.8238C19.7864 22.6169 20.9739 21.8969 21.8801 20.6882C21.9558 20.5869 21.9426 20.5413 21.8339 20.4794C21.486 20.2882 21.1422 20.0894 20.8026 19.8832C20.6889 19.8132 20.6395 19.84 20.5608 19.9363C18.9926 21.8475 16.2483 21.8513 14.6951 19.9413C14.6051 19.8307 14.5514 19.82 14.4345 19.8913C14.1164 20.0869 13.7945 20.2788 13.4639 20.4538C13.2976 20.5407 13.2983 20.6025 13.4064 20.7425C14.4726 22.13 15.887 22.8263 17.6308 22.8663V22.8619ZM17.2501 13.1563C17.2501 12.9532 17.242 12.75 17.2501 12.5475C17.2576 12.4163 17.212 12.3982 17.092 12.4094C16.4945 12.4706 15.9118 12.6331 15.3689 12.89C12.8314 14.0619 11.6708 17.1682 12.8151 19.7169C12.8814 19.865 12.9283 19.9175 13.0889 19.815C13.4014 19.6138 13.7308 19.4319 14.0589 19.2525C14.1776 19.19 14.2039 19.1313 14.147 19.0025C13.9787 18.6155 13.8872 18.1995 13.8776 17.7775C13.8151 15.825 15.1439 14.2344 17.0976 13.9175C17.2151 13.8988 17.2551 13.8588 17.2495 13.7407C17.2414 13.5469 17.2501 13.3513 17.2501 13.1563ZM22.8751 17.585C22.874 16.5153 22.5364 15.473 21.9101 14.6057C20.9901 13.3313 19.7458 12.5957 18.1789 12.4113C18.0364 12.395 17.9914 12.4175 17.9964 12.5713C18.0101 12.8357 17.9964 13.1019 18.0008 13.3669C18.0008 13.5369 17.957 13.7419 18.0364 13.8669C18.0989 13.9582 18.3214 13.9407 18.4739 13.9725C18.5039 13.9788 18.5364 13.9888 18.5639 13.9969C20.7601 14.5813 21.9208 16.8682 21.1026 19.0057C21.0626 19.11 21.0439 19.1744 21.1708 19.2419C21.5208 19.4294 21.8645 19.6288 22.202 19.8369C22.327 19.9138 22.3614 19.8763 22.4133 19.7607C22.7164 19.0753 22.8737 18.3344 22.8751 17.585ZM14.6251 17.6107C14.6223 18.2037 14.7953 18.7843 15.1223 19.279C15.4493 19.7738 15.9156 20.1606 16.4622 20.3904C17.0089 20.6203 17.6115 20.683 18.1938 20.5706C18.7761 20.4582 19.312 20.1757 19.7338 19.7588C20.1556 19.342 20.4444 18.8095 20.5638 18.2285C20.6831 17.6476 20.6275 17.0444 20.4042 16.495C20.1808 15.9456 19.7996 15.4748 19.3087 15.142C18.8179 14.8091 18.2394 14.6293 17.6464 14.625C16.8502 14.6217 16.0852 14.9341 15.5189 15.4937C14.9527 16.0533 14.6312 16.8145 14.6251 17.6107ZM21.0001 1.12879C20.6293 1.12879 20.2668 1.23876 19.9584 1.44479C19.6501 1.65082 19.4098 1.94365 19.2679 2.28626C19.1259 2.62887 19.0888 3.00587 19.1612 3.36959C19.2335 3.7333 19.4121 4.0674 19.6743 4.32962C19.9365 4.59184 20.2706 4.77042 20.6343 4.84277C20.9981 4.91511 21.3751 4.87798 21.7177 4.73607C22.0603 4.59415 22.3531 4.35383 22.5591 4.04549C22.7652 3.73715 22.8751 3.37463 22.8751 3.00379C22.8741 2.50682 22.6763 2.03048 22.3249 1.67906C21.9735 1.32765 21.4971 1.12979 21.0001 1.12879ZM11.6251 14.25C11.6251 14.695 11.6251 15.1394 11.6251 15.5838C11.6251 15.6463 11.572 15.7613 11.712 15.7482C11.7989 15.7394 11.8995 15.8013 11.962 15.6563C12.2333 15.0582 12.4745 14.46 12.3745 13.7813C12.3632 13.6257 12.3632 13.4694 12.3745 13.3138C12.3745 12.7375 12.3745 12.7425 11.7883 12.7513C11.6551 12.7513 11.6195 12.7888 11.622 12.92C11.6301 13.3594 11.6251 13.8038 11.6251 14.25ZM13.8639 6.00004C13.9385 6.00228 14.0121 5.98221 14.0752 5.94239C14.1383 5.90257 14.1881 5.84481 14.2183 5.77652C14.2484 5.70822 14.2574 5.63249 14.2443 5.55903C14.2311 5.48556 14.1963 5.41769 14.1443 5.36412C14.0923 5.31054 14.0256 5.27369 13.9525 5.25829C13.8795 5.24288 13.8035 5.24962 13.7344 5.27764C13.6652 5.30567 13.6059 5.35369 13.5642 5.41558C13.5225 5.47747 13.5002 5.5504 13.5001 5.62504C13.501 5.7223 13.5393 5.81549 13.607 5.8853C13.6747 5.95511 13.7667 5.9962 13.8639 6.00004ZM16.1326 8.25004C16.2071 8.24824 16.2793 8.22433 16.34 8.18136C16.4008 8.13838 16.4475 8.07829 16.474 8.00873C16.5005 7.93917 16.5057 7.8633 16.4889 7.79076C16.4722 7.71823 16.4342 7.65232 16.3799 7.60144C16.3256 7.55055 16.2573 7.51699 16.1838 7.50503C16.1104 7.49306 16.035 7.50324 15.9673 7.53426C15.8996 7.56528 15.8427 7.61574 15.8038 7.67921C15.7649 7.74268 15.7458 7.81629 15.7489 7.89067C15.753 7.98892 15.7955 8.08165 15.8672 8.14887C15.939 8.21609 16.0343 8.25242 16.1326 8.25004ZM10.8751 9.01005C10.877 8.93551 10.8566 8.8621 10.8165 8.79921C10.7765 8.73633 10.7186 8.6868 10.6503 8.65698C10.5819 8.62715 10.5062 8.61838 10.4329 8.63177C10.3595 8.64516 10.2919 8.68012 10.2385 8.73217C10.1851 8.78422 10.1484 8.85101 10.1332 8.924C10.1179 8.99698 10.1248 9.07286 10.1529 9.14193C10.181 9.211 10.229 9.27013 10.2909 9.31176C10.3527 9.3534 10.4256 9.37565 10.5001 9.37567C10.598 9.3757 10.692 9.33748 10.762 9.26917C10.8321 9.20086 10.8727 9.10787 10.8751 9.01005Z" fill="white"/>
<path d="M10.1249 13.5C10.1249 14.4375 10.1212 15.375 10.1287 16.3125C10.1287 16.465 10.0912 16.5062 9.93742 16.5043C9.30492 16.495 8.67243 16.4968 8.04055 16.5043C7.90805 16.5043 7.87305 16.4687 7.87305 16.3368C7.87721 14.4468 7.87721 12.557 7.87305 10.6674C7.87305 10.5356 7.90742 10.4981 8.03992 10.4999C8.67242 10.5068 9.30492 10.5081 9.93742 10.4999C10.0905 10.4999 10.1299 10.5387 10.1287 10.6912C10.1249 11.6249 10.1249 12.5624 10.1249 13.5ZM9.37492 13.485V11.7974C9.37492 11.2456 9.37492 11.2537 8.82055 11.2456C8.64992 11.2456 8.62055 11.2956 8.62117 11.4537C8.62805 12.695 8.62492 13.9368 8.62492 15.1781C8.62492 15.76 8.62492 15.7531 9.20242 15.7531C9.35492 15.7531 9.3793 15.7062 9.37805 15.5687C9.37492 14.875 9.37492 14.1793 9.37492 13.4843V13.485Z" fill="white"/>
<path d="M4.12835 14.6475C4.12835 15.21 4.1246 15.7725 4.13147 16.335C4.13147 16.4669 4.09647 16.5038 3.96397 16.5025C3.32397 16.4958 2.68397 16.4958 2.04397 16.5025C1.91147 16.5025 1.87585 16.4669 1.87647 16.335C1.88147 15.195 1.88147 14.055 1.87647 12.915C1.87647 12.7825 1.91147 12.7456 2.04397 12.7475C2.68397 12.7542 3.32418 12.7542 3.9646 12.7475C4.0971 12.7475 4.13335 12.7825 4.13147 12.915C4.12522 13.4919 4.12835 14.07 4.12835 14.6475ZM3.37835 14.6381V14.0525C3.37835 13.49 3.37835 13.4956 2.80647 13.4956C2.66522 13.4956 2.61897 13.525 2.6246 13.6738C2.63522 14.1738 2.62835 14.6738 2.62835 15.1738C2.62835 15.7694 2.62835 15.7656 3.22397 15.7531C3.34272 15.7531 3.38522 15.7256 3.38147 15.5994C3.37522 15.2781 3.37897 14.9581 3.37897 14.6381H3.37835Z" fill="white"/>
<path d="M7.12493 15C7.12493 15.445 7.11993 15.89 7.12806 16.335C7.12806 16.4675 7.09306 16.5037 6.96056 16.5025C6.32056 16.4958 5.68056 16.4958 5.04056 16.5025C4.90806 16.5025 4.87243 16.4669 4.87305 16.335C4.87847 15.445 4.87847 14.5548 4.87305 13.6644C4.87305 13.5325 4.90806 13.4956 5.04056 13.4969C5.68056 13.5035 6.32056 13.5035 6.96056 13.4969C7.09306 13.4969 7.13056 13.5319 7.12806 13.6644C7.12493 14.1087 7.12493 14.5537 7.12493 15ZM6.37493 15.0187V14.8312C6.37493 14.2162 6.37493 14.2181 5.76118 14.2475C5.66993 14.2519 5.62118 14.2594 5.62243 14.3725C5.62868 14.7937 5.62618 15.2156 5.62243 15.6369C5.62243 15.7094 5.63493 15.7419 5.72118 15.7531C6.32993 15.8344 6.37305 15.8012 6.37305 15.2069L6.37493 15.0187Z" fill="white"/>
<path d="M6.00315 4.49997C6.81565 4.49997 7.62815 4.50372 8.44065 4.49622C8.5944 4.49622 8.63315 4.53559 8.63252 4.68809C8.62877 5.25059 8.63252 5.25059 8.06502 5.25059C6.57377 5.25059 5.08252 5.25059 3.59127 5.25496C3.41564 5.25496 3.37252 5.21372 3.37564 5.03934C3.38627 4.50122 3.37564 4.50121 3.92064 4.50121L6.00315 4.49997Z" fill="white"/>
<path d="M5.98851 6.74998C5.18476 6.74998 4.38039 6.74498 3.57601 6.75436C3.40914 6.75436 3.37164 6.71061 3.37414 6.54936C3.38164 6.00061 3.37414 6.00061 3.93101 6.00061C5.42226 6.00061 6.91351 6.00436 8.40476 5.99561C8.59226 5.99561 8.63476 6.04561 8.63038 6.22498C8.61913 6.74998 8.62726 6.74998 8.09663 6.74998H5.98851Z" fill="white"/>
<path d="M6.00013 7.49997C6.81264 7.49997 7.62514 7.50434 8.43764 7.49622C8.58951 7.49622 8.63076 7.53372 8.63014 7.68747C8.62639 8.24997 8.63014 8.24997 8.06326 8.24997C6.57201 8.24997 5.08076 8.24622 3.59013 8.25434C3.41576 8.25434 3.3695 8.21559 3.37325 8.03934C3.3845 7.49997 3.37325 7.49997 3.91701 7.49997H6.00013Z" fill="white"/>
<path d="M6.02514 9.75001C5.20514 9.75001 4.38514 9.74563 3.56576 9.75376C3.41139 9.75376 3.37389 9.71251 3.37826 9.56126C3.37826 8.99876 3.37826 8.99876 3.94576 8.99876C5.43701 8.99876 6.92826 9.00251 8.41951 8.99438C8.59639 8.99438 8.63764 9.03751 8.63451 9.21126C8.62389 9.74876 8.63451 9.74876 8.08951 9.74876L6.02514 9.75001Z" fill="white"/>
<path d="M2.25488 4.5C2.62988 4.5 2.62988 4.5 2.62988 4.875C2.62988 5.25 2.62988 5.25 2.25488 5.25C1.87988 5.25 1.87988 5.25 1.87988 4.875C1.87988 4.5 1.87926 4.5 2.25488 4.5Z" fill="white"/>
<path d="M2.62877 6.38807C2.62877 6.75119 2.62877 6.75119 2.26627 6.75119C1.87939 6.75119 1.87939 6.75119 1.87939 6.36557C1.87939 6.00182 1.87939 6.00182 2.24189 6.00182C2.62877 5.99995 2.62877 5.99995 2.62877 6.38807Z" fill="white"/>
<path d="M2.26189 7.5C2.62877 7.5 2.62877 7.5 2.62877 7.85938C2.62877 8.25 2.62877 8.25 2.24627 8.25C1.87939 8.25 1.87939 8.25 1.87939 7.89062C1.87939 7.5 1.87939 7.5 2.26189 7.5Z" fill="white"/>
<path d="M2.62877 9.3869C2.62877 9.75065 2.62877 9.75065 2.26627 9.75065C1.87939 9.75065 1.87939 9.75065 1.87939 9.3644C1.87939 9.00066 1.87939 9.00066 2.24189 9.00066C2.62877 9.00003 2.62877 9.00003 2.62877 9.3869Z" fill="white"/>
</svg>
