<svg width="24" height="24" viewBox="0 0 24 24" fill="none" xmlns="http://www.w3.org/2000/svg">
<path d="M11.3868 0.758057H9.40113V4.88306H7.12502C5.89844 4.88437 4.69818 5.23881 3.66766 5.90402C2.63713 6.56923 1.81993 7.51709 1.31369 8.63432C0.940815 9.38105 0.747782 10.2046 0.750019 11.0393V23.2581H3.19436L5.51964 14.9257C5.75576 14.0876 6.25874 13.3492 6.95232 12.8227C7.64591 12.2962 8.49227 12.0102 9.36307 12.0081H9.40113V16.1331H11.3596L19.0607 8.43196L11.3868 0.758057ZM10.9011 14.4703V10.5081H9.36307C8.16492 10.511 7.0004 10.9045 6.04609 11.6289C5.09177 12.3534 4.39972 13.3693 4.07486 14.5225L2.25002 21.0616V11.0393C2.24825 10.4326 2.38932 9.83402 2.66182 9.29198L2.6755 9.2632C3.06138 8.40587 3.68645 7.6781 4.4757 7.16722C5.26495 6.65634 6.18485 6.38406 7.12502 6.38306H10.9011V2.39371L16.9394 8.43196L10.9011 14.4703Z" fill="white"/>
<path d="M15.5114 0.726929H13.4766L21.1815 8.43196L13.5116 16.1019H15.4841L23.1852 8.40083L15.5114 0.726929Z" fill="white"/>
</svg>
