<svg width="19" height="19" viewBox="0 0 19 19" fill="none" xmlns="http://www.w3.org/2000/svg">
<circle cx="9.5" cy="9.5" r="9.5" fill="#4F5B87"/>
<path d="M9.21468 3.87812C9.30449 3.60172 9.69551 3.60172 9.78532 3.87812L10.892 7.28409C10.9321 7.4077 11.0473 7.49139 11.1773 7.49139H14.7586C15.0492 7.49139 15.17 7.86327 14.9349 8.03409L12.0376 10.1391C11.9325 10.2155 11.8885 10.3509 11.9286 10.4745L13.0353 13.8805C13.1251 14.1569 12.8087 14.3867 12.5736 14.2159L9.67634 12.1109C9.57119 12.0345 9.42881 12.0345 9.32366 12.1109L6.42637 14.2159C6.19125 14.3867 5.87491 14.1569 5.96471 13.8805L7.07138 10.4745C7.11154 10.3509 7.06755 10.2155 6.9624 10.1391L4.0651 8.03409C3.82999 7.86327 3.95082 7.49139 4.24144 7.49139H7.8227C7.95266 7.49139 8.06785 7.4077 8.10801 7.28409L9.21468 3.87812Z" fill="#FCC400"/>
</svg>
