<svg width="24" height="24" viewBox="0 0 24 24" fill="none" xmlns="http://www.w3.org/2000/svg">
<g clip-path="url(#clip0_63_1942)">
<path d="M0.00390625 21.9375V4.45628C0.115156 4.26878 0.277032 4.20628 0.493282 4.21878C0.725782 4.23378 0.96078 4.2119 1.1939 4.22565C1.3589 4.23565 1.42828 4.20315 1.41453 4.01628C1.39516 3.75253 1.40703 3.4869 1.41016 3.2219C1.41328 2.9569 1.54078 2.82128 1.81016 2.81753C2.09828 2.81315 2.38703 2.81128 2.67453 2.81753C2.78766 2.81753 2.82078 2.7869 2.81766 2.6744C2.81016 2.38628 2.81203 2.09815 2.81766 1.81003C2.82141 1.54065 2.95016 1.41378 3.22266 1.41003C3.49516 1.40628 3.75328 1.39503 4.01641 1.4144C4.20391 1.42815 4.23578 1.35815 4.22578 1.19315C4.21203 0.960028 4.23391 0.725029 4.21891 0.492529C4.20516 0.276904 4.27078 0.117528 4.45703 0.00377846C10.9041 0.00377846 17.3514 0.00211263 23.7989 -0.0012207C23.9695 -0.0012207 24.0014 0.0362786 24.0014 0.203154C23.9964 7.4469 23.9949 14.6904 23.997 21.9338C23.9177 21.9907 23.9345 22.0863 23.9127 22.1632C23.6627 23.0313 23.1002 23.6007 22.2552 23.8875C22.1208 23.9338 21.9795 23.96 21.8414 23.9957H2.06578C2.01891 23.9132 1.92766 23.9375 1.85891 23.9182C0.990781 23.6738 0.417031 23.1219 0.117031 22.2763C0.0770311 22.1638 0.0907812 22.0325 0.00390625 21.9375ZM4.18766 23.2938H21.3827C22.5702 23.2938 23.2945 22.5682 23.2945 21.385C23.2945 14.575 23.2962 7.76503 23.2995 0.955029C23.2995 0.752529 23.257 0.705029 23.0495 0.705029C17.0987 0.711279 11.1479 0.711279 5.19703 0.705029C4.97453 0.705029 4.91953 0.751279 4.92015 0.978779C4.92682 7.75753 4.93016 14.5363 4.93016 21.315C4.92953 22.0557 4.74141 22.7107 4.18766 23.2938ZM4.22328 11.975V2.65065C4.22328 2.08378 4.22328 2.08815 3.66078 2.11003C3.54578 2.1144 3.51766 2.14753 3.52016 2.2569C3.52703 2.54565 3.52641 2.8344 3.52016 3.12378C3.51578 3.38253 3.38765 3.51315 3.1314 3.51815C2.87401 3.53045 2.61614 3.52899 2.35891 3.51378C2.14391 3.49503 2.10891 3.5719 2.10891 3.76878C2.11391 9.63378 2.11536 15.4986 2.11328 21.3632C2.11328 21.4257 2.10953 21.4882 2.11328 21.5507C2.11394 21.6433 2.15139 21.7319 2.21738 21.797C2.28337 21.862 2.3725 21.8982 2.46516 21.8975C2.55782 21.8969 2.64642 21.8594 2.71147 21.7934C2.77652 21.7274 2.81269 21.6383 2.81203 21.5457C2.81828 21.4757 2.81203 21.405 2.81203 21.335V4.77253C2.81203 4.70253 2.80828 4.6319 2.81203 4.5619C2.81584 4.47172 2.85436 4.38649 2.91952 4.32403C2.98468 4.26157 3.07145 4.22669 3.16172 4.22669C3.25199 4.22669 3.33876 4.26157 3.40392 4.32403C3.46908 4.38649 3.50759 4.47172 3.51141 4.5619C3.51766 4.6319 3.51141 4.70253 3.51141 4.77253V21.3607C3.51141 21.4388 3.51141 21.5169 3.51141 21.595C3.49457 21.8623 3.37745 22.1133 3.18346 22.2979C2.98947 22.4825 2.73292 22.5871 2.46516 22.5907C1.84953 22.5907 1.40266 22.1144 1.40266 21.4425C1.40266 16.085 1.40266 10.7277 1.40266 5.37065C1.40266 4.92503 1.40266 4.93753 0.958282 4.9194C0.745157 4.91128 0.69453 4.97128 0.69453 5.18315C0.701197 10.5794 0.703074 15.9752 0.700157 21.3707C0.700157 21.4569 0.700157 21.5432 0.700157 21.6288C0.72505 22.0659 0.911551 22.4781 1.22342 22.7853C1.53529 23.0926 1.95025 23.2729 2.38766 23.2913C3.40953 23.3232 4.21203 22.535 4.21328 21.4857C4.2212 18.3161 4.22391 15.1459 4.22141 11.975H4.22328Z" fill="white"/>
<path d="M14.0852 8.53304H7.54834C7.13396 8.53304 7.03271 8.43429 7.03271 8.02929V3.31991C7.03271 2.92116 7.13521 2.81616 7.52459 2.81616H20.6915C21.0746 2.81616 21.184 2.92304 21.184 3.29616C21.184 4.88199 21.184 6.46741 21.184 8.05241C21.184 8.42741 21.074 8.53304 20.6921 8.53304H14.0852ZM14.1296 7.82991C16.1758 7.82991 18.2219 7.83137 20.2677 7.83429C20.4371 7.83429 20.4877 7.80179 20.4865 7.62179C20.4773 6.32554 20.4773 5.02908 20.4865 3.73241C20.4865 3.56179 20.4527 3.51429 20.2733 3.51429C16.1654 3.52054 12.0577 3.52054 7.95021 3.51429C7.78021 3.51429 7.73021 3.54679 7.73146 3.72741C7.74063 5.01575 7.74063 6.30408 7.73146 7.59241C7.73146 7.78366 7.77021 7.83554 7.96896 7.83491C10.0221 7.82679 12.0758 7.82991 14.1296 7.82991Z" fill="white"/>
<path d="M7.03254 18.0112C7.03254 17.1208 7.03254 16.2304 7.03254 15.34C7.03254 14.9731 7.14254 14.8594 7.49941 14.8594H12.5838C12.9419 14.8594 13.0544 14.9725 13.0544 15.3387C13.0544 17.1271 13.0544 18.9154 13.0544 20.7038C13.0544 21.0788 12.9438 21.1856 12.5619 21.1856H7.52441C7.13504 21.1856 7.03254 21.08 7.03254 20.6819C7.03212 19.7919 7.03212 18.9017 7.03254 18.0112ZM7.73566 18.0231C7.73566 18.78 7.74066 19.5375 7.73191 20.2944C7.73191 20.4475 7.77066 20.4863 7.92379 20.4856C9.33629 20.4794 10.749 20.4794 12.1619 20.4856C12.3157 20.4856 12.3544 20.4456 12.3538 20.2931C12.3475 18.7785 12.3475 17.2642 12.3538 15.75C12.3538 15.5956 12.3119 15.5587 12.1613 15.5625C10.748 15.5679 9.33504 15.5679 7.92254 15.5625C7.76754 15.5625 7.73066 15.6044 7.73504 15.755C7.74004 16.5088 7.73566 17.2656 7.73566 18.0231Z" fill="white"/>
<path d="M14.4631 16.615C14.4631 17.9566 14.4631 19.2987 14.4631 20.6412C14.4671 20.7346 14.4606 20.828 14.4438 20.92C14.4256 20.9958 14.3822 21.0633 14.3206 21.1113C14.259 21.1592 14.183 21.1848 14.105 21.1837C14.0269 21.1827 13.9516 21.1552 13.8913 21.1057C13.831 21.0561 13.7893 20.9875 13.7731 20.9112C13.7585 20.8268 13.7526 20.7412 13.7556 20.6556C13.7556 17.9635 13.7556 15.2716 13.7556 12.58C13.7556 12.5412 13.7556 12.5018 13.7556 12.4631C13.7656 12.2031 13.8919 12.0518 14.1019 12.0475C14.3225 12.0431 14.4619 12.1968 14.4625 12.4718C14.4625 13.5481 14.4625 14.625 14.4625 15.7018L14.4631 16.615Z" fill="white"/>
<path d="M18.1614 14.8594C19.0276 14.8594 19.8945 14.8594 20.7614 14.8594C21.0114 14.8594 21.1608 14.9769 21.182 15.1719C21.2051 15.3901 21.0414 15.5563 20.787 15.5588C20.3339 15.5626 19.8814 15.5588 19.4283 15.5588H15.6101C15.3376 15.5588 15.1901 15.4513 15.1726 15.2463C15.1495 15.0119 15.3083 14.8601 15.587 14.8594C16.4439 14.8582 17.3026 14.8594 18.1614 14.8594Z" fill="white"/>
<path d="M18.1671 16.9681H15.7077C15.6608 16.9681 15.614 16.9681 15.5671 16.9681C15.3171 16.9612 15.1627 16.8243 15.1671 16.6093C15.1708 16.4049 15.3202 16.2706 15.5583 16.2668C15.7965 16.2631 16.0421 16.2668 16.284 16.2668H20.7346C21.0215 16.2668 21.1883 16.4031 21.1833 16.6256C21.1783 16.8481 21.0183 16.9693 20.7458 16.9693C19.8854 16.9693 19.0258 16.9689 18.1671 16.9681Z" fill="white"/>
<path d="M18.1875 17.6707C19.0462 17.6707 19.905 17.6707 20.7637 17.6707C21.0137 17.6707 21.1631 17.7882 21.185 17.9832C21.2087 18.2014 21.0443 18.3676 20.79 18.3701C20.3525 18.3745 19.915 18.3701 19.4775 18.3701C18.1896 18.3701 16.9012 18.3701 15.6125 18.3701C15.4062 18.3701 15.2375 18.3232 15.1818 18.0995C15.1193 17.8495 15.2887 17.6676 15.5862 17.667C16.4506 17.6695 17.3175 17.6707 18.1875 17.6707Z" fill="white"/>
<path d="M18.1614 19.0769C19.0283 19.0769 19.8951 19.0769 20.7614 19.0769C21.0114 19.0769 21.1608 19.1944 21.182 19.3894C21.2051 19.6075 21.0414 19.7737 20.7864 19.7756C20.3339 19.78 19.8808 19.7756 19.4283 19.7756H15.6101C15.3376 19.7756 15.1901 19.6675 15.1726 19.46C15.1495 19.2262 15.3083 19.0744 15.5876 19.0737C16.4439 19.0756 17.3026 19.0769 18.1614 19.0769Z" fill="white"/>
<path d="M18.1614 20.4826C19.0283 20.4826 19.8951 20.4826 20.7614 20.4826C21.0114 20.4826 21.1608 20.6007 21.182 20.7951C21.2051 21.0132 21.0414 21.1789 20.7864 21.1814C20.3339 21.1851 19.8808 21.1814 19.4283 21.1814H15.6101C15.3376 21.1814 15.1901 21.0732 15.1726 20.8657C15.1495 20.632 15.3083 20.4801 15.5876 20.4795C16.4439 20.4814 17.3026 20.4826 18.1614 20.4826Z" fill="white"/>
</g>
<defs>
<clipPath id="clip0_63_1942">
<rect width="24" height="24" fill="white"/>
</clipPath>
</defs>
</svg>
