<svg width="26" height="26" viewBox="0 0 26 26" fill="none" xmlns="http://www.w3.org/2000/svg">
<path d="M8.21172 4.41992L6.66255 2.87075C4.06255 4.85325 2.35089 7.90825 2.19922 11.3749H4.36589C4.44263 10.001 4.82828 8.66218 5.49414 7.458C6.16 6.25383 7.08892 5.21536 8.21172 4.41992ZM21.6342 11.3749H23.8009C23.6384 7.90825 21.9267 4.85325 19.3376 2.87075L17.7992 4.41992C18.9172 5.21928 19.842 6.25889 20.5056 7.46242C21.1692 8.66595 21.5549 10.0028 21.6342 11.3749ZM19.5001 11.9166C19.5001 8.59075 17.7234 5.80659 14.6251 5.06992V4.33325C14.6251 3.43409 13.8992 2.70825 13.0001 2.70825C12.1009 2.70825 11.3751 3.43409 11.3751 4.33325V5.06992C8.26589 5.80659 6.50005 8.57992 6.50005 11.9166V17.3333L4.33339 19.4999V20.5833H21.6667V19.4999L19.5001 17.3333V11.9166ZM13.0001 23.8333C13.1517 23.8333 13.2926 23.8224 13.4334 23.7899C14.1376 23.6383 14.7117 23.1616 14.9934 22.5116C15.1017 22.2516 15.1559 21.9699 15.1559 21.6666H10.8226C10.8334 22.8583 11.7976 23.8333 13.0001 23.8333Z" fill="#163A67"/>
</svg>
