<svg width="26" height="26" viewBox="0 0 26 26" fill="none" xmlns="http://www.w3.org/2000/svg">
<path d="M13.0001 23.8334C14.1917 23.8334 15.1667 22.8584 15.1667 21.6667H10.8334C10.8334 22.8584 11.8084 23.8334 13.0001 23.8334ZM19.5001 17.3334V11.9167C19.5001 8.59087 17.7342 5.80671 14.6251 5.07004V4.33337C14.6251 3.43421 13.8992 2.70837 13.0001 2.70837C12.1009 2.70837 11.3751 3.43421 11.3751 4.33337V5.07004C8.27672 5.80671 6.50005 8.58004 6.50005 11.9167V17.3334L4.33339 19.5V20.5834H21.6667V19.5L19.5001 17.3334ZM17.3334 18.4167H8.66672V11.9167C8.66672 9.23004 10.3026 7.04171 13.0001 7.04171C15.6976 7.04171 17.3334 9.23004 17.3334 11.9167V18.4167ZM8.21172 4.42004L6.66255 2.87087C4.06255 4.85337 2.35089 7.90837 2.19922 11.375H4.36589C4.44263 10.0012 4.82828 8.6623 5.49414 7.45813C6.16 6.25395 7.08892 5.21548 8.21172 4.42004ZM21.6342 11.375H23.8009C23.6384 7.90837 21.9267 4.85337 19.3376 2.87087L17.7992 4.42004C18.9172 5.2194 19.842 6.25901 20.5056 7.46254C21.1692 8.66607 21.5549 10.003 21.6342 11.375Z" fill="#0094FF"/>
</svg>
