<svg width="136" height="136" viewBox="0 0 136 136" fill="none" xmlns="http://www.w3.org/2000/svg">
<g clip-path="url(#clip0_92_177)">
<path d="M85.6402 135.577H0.847206C0.241376 134.935 0.317526 134.13 0.317526 133.339C0.317526 94.8042 0.317526 56.2717 0.317526 17.7413C0.317526 15.3809 0.353942 15.3445 2.63491 15.3445H45.9766C44.0267 17.7844 42.1694 20.3103 40.736 23.0812C40.2659 23.9949 39.7097 24.2896 38.6901 24.283C30.3309 24.2399 21.9685 24.2598 13.606 24.2598C13.1231 24.252 12.6402 24.2707 12.1593 24.3161C11.7224 24.3726 11.3184 24.5785 11.0159 24.8988C10.7133 25.2191 10.5308 25.6342 10.4993 26.0736C10.4677 26.5131 10.589 26.95 10.8427 27.3102C11.0964 27.6705 11.4668 27.932 11.8912 28.0504C12.4473 28.1746 13.0164 28.2313 13.5862 28.2192C21.3759 28.2192 29.1656 28.2391 36.9553 28.2192C38.0313 28.2192 38.4021 28.4278 37.9485 29.5434C37.5693 30.4811 37.2736 31.4505 37.0646 32.4401C36.909 33.1354 36.5879 33.3539 35.8927 33.3406C33.8236 33.3009 31.7545 33.3406 29.6887 33.3406C24.0983 33.3406 18.509 33.3406 12.9208 33.3406C11.7422 33.3406 10.8318 33.6915 10.5537 34.9595C10.2624 36.2837 11.2158 37.2769 12.8446 37.3C16.6286 37.3265 20.4125 37.3 24.1965 37.3C27.805 37.3 31.4135 37.3232 35.022 37.2835C35.8794 37.2835 36.0913 37.5384 35.939 38.3495C35.7742 39.1238 35.7042 39.9153 35.7304 40.7066C35.8033 41.9712 35.4523 42.4314 34.0487 42.4115C27.2289 42.3254 20.4092 42.3718 13.5862 42.3751C11.4807 42.3751 10.4809 43.0372 10.4941 44.4078C10.5074 45.7783 11.4343 46.3378 13.5067 46.3378C20.4589 46.3378 27.411 46.3544 34.3632 46.3378C35.3166 46.3378 35.7338 46.4868 35.7801 47.6025C35.8906 49.1809 36.1186 50.7489 36.4621 52.2935C37.3791 57.0408 39.2065 61.4505 41.5438 65.6615H37.0447C34.9492 65.6615 34.6975 65.9197 34.6975 68.0153V123.679C34.6975 123.987 34.6975 124.295 34.6975 124.602C34.6975 125.619 35.1809 126.122 36.2502 126.099C38.4484 126.052 40.6466 126.066 42.8481 126.056C44.9602 126.072 47.0724 126.105 49.1845 126.109C50.8994 126.109 51.0616 125.94 51.0616 124.195C51.0616 116.137 51.0616 108.082 51.0616 100.028C51.0616 92.3213 51.0726 84.6155 51.0947 76.9107C54.1329 79.2644 57.4003 81.3062 60.8476 83.0054L60.8277 112.8C60.8277 116.667 60.8509 120.534 60.8277 124.387C60.8277 125.625 61.3077 126.135 62.5558 126.099C64.7044 126.039 66.8595 126.066 69.0114 126.056C70.9977 126.072 72.9675 126.099 74.9472 126.105C77.1487 126.105 77.1983 126.059 77.1983 123.914L77.2182 86.8126C80.2195 86.8813 83.221 86.6808 86.1865 86.2133C86.1865 101.773 86.181 117.332 86.1699 132.892C86.2076 133.816 86.0261 134.736 85.6402 135.577ZM17.2311 126.049C19.2174 126.076 21.1806 126.112 23.1537 126.125C25.4711 126.125 25.5174 126.066 25.5174 123.768V84.3462C25.5174 83.949 25.5174 83.555 25.4942 83.161C25.438 82.3764 25.001 81.9527 24.2131 81.9593C21.8957 81.9593 19.5783 82.0057 17.2344 82.0288C15.3011 82.0288 13.3677 81.9924 11.4343 81.9858C9.30234 81.9858 9.13351 82.1579 9.13351 84.3297C9.13351 97.4836 9.13351 110.635 9.13351 123.785C9.13351 124.093 9.13351 124.401 9.13351 124.708C9.16 125.682 9.63671 126.125 10.6332 126.105C12.8347 126.059 15.0329 126.066 17.2311 126.049ZM20.1146 51.4493C17.6582 51.4493 15.1984 51.4129 12.742 51.4493C11.292 51.4791 10.4246 52.2968 10.461 53.4654C10.4842 54.5678 11.3383 55.4021 12.6956 55.412C17.6107 55.4518 22.5269 55.4518 27.4441 55.412C28.6062 55.412 29.4867 54.8559 29.6258 53.5714C29.7582 52.3531 28.8611 51.4725 27.3581 51.4427C24.9447 51.4129 22.5313 51.4493 20.1146 51.4493Z" fill="#F0EFF4" fill-opacity="0.5"/>
<path d="M135.567 97.7936C134.203 100.366 132.673 101.25 130.518 100.743C129.787 100.573 129.119 100.199 128.591 99.664C121.143 92.2021 113.699 84.7368 106.262 77.2682C107.841 75.209 110.082 73.7987 111.665 71.7396C111.724 71.6601 111.906 71.6733 112.032 71.6436C115.581 75.1748 119.13 78.6983 122.679 82.2141C126.254 85.7763 129.81 89.3616 133.395 92.9138C134.299 93.8077 135.126 94.728 135.567 95.943V97.7936Z" fill="#3B4568"/>
<path d="M112.032 71.6436C111.906 71.6734 111.724 71.6601 111.665 71.7396C110.082 73.7987 107.841 75.209 106.262 77.2682C105.394 77.4337 104.842 78.1058 104.183 78.5924C98.8372 82.4633 92.6809 85.0672 86.1801 86.2067C83.2146 86.6741 80.2131 86.8746 77.2118 86.8059C74.4747 86.6641 71.7529 86.3088 69.0712 85.7432C66.2681 85.0261 63.5217 84.1032 60.8544 82.9822C57.4072 81.283 54.1397 79.2411 51.1015 76.8875C48.0626 74.1506 45.3115 71.11 42.8913 67.8133L41.5307 65.6084C39.1935 61.3974 37.366 57.001 36.449 52.2405C36.1017 50.7006 35.8693 49.137 35.7538 47.5627C35.7075 46.447 35.2903 46.2947 34.3369 46.298C27.3847 46.3311 20.4326 46.3179 13.4804 46.298C11.408 46.298 10.4778 45.7021 10.4678 44.368C10.4579 43.0338 11.461 42.3353 13.5599 42.3353C20.3829 42.3353 27.2027 42.2856 34.0224 42.3717C35.4261 42.3916 35.777 41.9314 35.7041 40.6668C35.6779 39.8755 35.7479 39.084 35.9127 38.3097C36.065 37.4986 35.8531 37.2338 34.9957 37.2437C31.3872 37.2834 27.7787 37.2602 24.1702 37.2602C20.3862 37.2602 16.6023 37.2602 12.8183 37.2602C11.1962 37.2602 10.2361 36.2373 10.5274 34.9197C10.8055 33.6517 11.7159 33.2975 12.8945 33.3008C18.4827 33.3008 24.072 33.3008 29.6624 33.3008C31.7282 33.3008 33.7973 33.2743 35.8664 33.3008C36.5616 33.3008 36.8827 33.0956 37.0383 32.4004C37.2473 31.4107 37.543 30.4414 37.9222 29.5036C38.3923 28.3913 38.0215 28.1794 36.929 28.1794C29.1393 28.2092 21.3496 28.1993 13.5599 28.1794C12.9902 28.1915 12.4211 28.1348 11.8649 28.0106C11.4405 27.8922 11.0701 27.6307 10.8164 27.2704C10.5627 26.9102 10.4414 26.4733 10.473 26.0338C10.5045 25.5944 10.687 25.1793 10.9896 24.859C11.2921 24.5387 11.6961 24.3328 12.1331 24.2763C12.6139 24.231 13.0969 24.2122 13.5798 24.22C21.9422 24.22 30.3046 24.2001 38.6638 24.2432C39.6834 24.2432 40.2396 23.9552 40.7097 23.0414C42.1432 20.254 44.0004 17.7446 45.9503 15.3047C49.4032 11.5009 53.26 8.19695 57.7888 5.72397C66.1579 1.15873 75.0566 -0.566074 84.5248 0.698555C93.6778 1.8464 102.201 5.96574 108.788 12.4245C115.852 19.2509 120.136 27.557 121.537 37.3C123.053 47.8639 120.908 57.6698 115.276 66.7142C114.419 68.0914 113.403 69.3626 112.462 70.6868C112.29 71.0146 111.963 71.2298 112.032 71.6436ZM74.9308 78.3507C78.397 79.0691 81.8499 78.7215 85.2597 78.0694C94.6782 76.2684 102.206 71.4218 107.665 63.546C113.293 55.4186 115.144 46.3675 113.237 36.7008C111.413 27.461 106.523 20.0653 98.7601 14.6889C91.8642 9.91512 84.1937 7.899 75.8214 8.61407C67.4258 9.42516 60.1327 12.686 54.1406 18.6417C47.2248 25.5144 43.7389 33.9431 43.7488 43.6496C43.7488 53.0549 47.0891 61.2915 53.697 68.0483C59.5169 74.0007 66.5816 77.5363 74.9308 78.3507Z" fill="#3B4568"/>
<path d="M41.5308 65.6216L42.8915 67.8264C42.8915 68.3098 42.8517 68.7931 42.8517 69.2764C42.8517 88.2017 42.8517 107.128 42.8517 126.056C40.6502 126.056 38.452 126.056 36.2538 126.099C35.1845 126.122 34.7177 125.619 34.7012 124.602C34.7012 124.294 34.7012 123.987 34.7012 123.679V67.9754C34.7012 65.8798 34.9528 65.6282 37.0483 65.6216H41.5308Z" fill="#FFEDB9" fill-opacity="0.5"/>
<path d="M42.8516 126.056C42.8516 107.13 42.8516 88.2039 42.8516 69.2764C42.8516 68.7931 42.878 68.3098 42.8913 67.8264C45.3115 71.1232 48.0625 74.1637 51.1014 76.9006C51.1014 84.6032 51.0904 92.309 51.0683 100.018C51.0683 108.076 51.0683 116.132 51.0683 124.185C51.0683 125.93 50.9061 126.099 49.1913 126.099C47.0758 126.105 44.9637 126.072 42.8516 126.056Z" fill="#FFDDA7" fill-opacity="0.5"/>
<path d="M17.2348 82.0288C19.5521 82.0056 21.8894 81.9725 24.2134 81.9592C25.0013 81.9592 25.4383 82.3764 25.4946 83.161C25.5211 83.5549 25.5178 83.9489 25.5178 84.3461V123.768C25.5178 126.066 25.4582 126.135 23.154 126.125C21.1677 126.125 19.2045 126.076 17.2314 126.049C17.2314 111.377 17.2326 96.7033 17.2348 82.0288Z" fill="#F49FB3" fill-opacity="0.5"/>
<path d="M17.2349 82.0288C17.2349 96.7056 17.2349 111.382 17.2349 126.059C15.0367 126.059 12.8385 126.059 10.6403 126.115C9.64715 126.135 9.16711 125.692 9.14062 124.718C9.14062 124.41 9.14062 124.103 9.14062 123.795C9.14062 110.645 9.14062 97.4935 9.14062 84.3396C9.14062 82.1678 9.30947 81.9891 11.4415 81.9957C13.3682 81.9924 15.3016 82.0156 17.2349 82.0288Z" fill="#FFC8D4" fill-opacity="0.5"/>
<path d="M60.8541 82.9954C63.5208 84.1114 66.266 85.0298 69.0675 85.7431C69.0443 86.2265 69.0013 86.7098 69.0013 87.1898C69.0013 100.141 69.0013 113.092 69.0013 126.042C66.8494 126.042 64.6976 126.042 62.5457 126.085C61.2977 126.122 60.8044 125.612 60.8176 124.374C60.8541 120.507 60.8176 116.64 60.8176 112.787L60.8541 82.9954Z" fill="#C3E5F2" fill-opacity="0.5"/>
<path d="M69.0049 126.056C69.0049 113.105 69.0049 100.154 69.0049 87.2031C69.0049 86.723 69.0479 86.2397 69.0711 85.7563C71.7542 86.3196 74.4771 86.6727 77.215 86.8124L77.1952 123.914C77.1952 126.059 77.1455 126.115 74.944 126.105C72.961 126.099 70.9813 126.072 69.0049 126.056Z" fill="#84CAE7" fill-opacity="0.5"/>
<path d="M20.115 51.4493C22.5317 51.4493 24.9451 51.4129 27.3584 51.4493C28.8614 51.4791 29.7586 52.3597 29.6262 53.578C29.4871 54.8625 28.6065 55.412 27.4445 55.4186C22.5295 55.4562 17.6133 55.4562 12.696 55.4186C11.3387 55.4186 10.4846 54.5744 10.4614 53.472C10.4382 52.3034 11.2923 51.4857 12.7424 51.4559C15.1988 51.4062 17.6585 51.4559 20.115 51.4559V51.4493Z" fill="#535671"/>
<path d="M74.9311 78.3507C66.5819 77.5363 59.5172 74.0006 53.6972 68.0483C47.0761 61.2914 43.7656 53.0548 43.749 43.6495C43.749 33.943 47.2251 25.5144 54.1408 18.6417C60.1329 12.6827 67.4261 9.4251 75.8216 8.61401C76.0533 9.04438 76.4837 8.94507 76.8644 9.02783C85.3758 10.6831 92.467 14.765 97.9228 21.5185C101.838 26.3559 104.378 32.1583 105.276 38.3162C106.305 44.9771 105.607 51.4227 102.809 57.4876C97.3302 69.4354 88.0607 76.5133 74.9311 78.3507Z" fill="#DFFEFF" fill-opacity="0.5"/>
<path d="M74.9307 78.3507C88.0504 76.5133 97.3331 69.4354 102.812 57.4942C105.593 51.4293 106.308 44.9837 105.278 38.3228C104.381 32.1623 101.84 26.3573 97.9224 21.5185C92.4666 14.765 85.3754 10.6698 76.864 9.02781C76.4833 8.95498 76.0529 9.04436 75.8212 8.61399C84.1936 7.89891 91.8641 9.91504 98.76 14.6888C106.523 20.0652 111.413 27.4609 113.237 36.7007C115.144 46.3675 113.3 55.4185 107.665 63.5459C102.206 71.4217 94.6781 76.2683 85.2596 78.0693C81.8497 78.7214 78.3968 79.069 74.9307 78.3507Z" fill="#C7FDFF" fill-opacity="0.5"/>
</g>
<defs>
<clipPath id="clip0_92_177">
<rect width="135.6" height="135.6" fill="white"/>
</clipPath>
</defs>
</svg>
