<svg width="24" height="24" viewBox="0 0 24 24" fill="none" xmlns="http://www.w3.org/2000/svg">
<path d="M23.9954 8.00156V8.84355C23.9151 8.90215 23.9368 8.99824 23.9157 9.07793C23.8366 9.43203 23.6882 9.76696 23.479 10.0634C23.2698 10.3599 23.0041 10.612 22.697 10.8053C22.5493 10.9008 22.4942 10.9957 22.4948 11.1732C22.5007 14.7814 22.4948 18.3891 22.5048 21.9967C22.5048 22.2117 22.4491 22.2609 22.2382 22.2609C15.4276 22.2551 8.61729 22.2551 1.80713 22.2609C1.59326 22.2609 1.54229 22.207 1.54229 21.9955C1.54932 18.4342 1.54229 14.8734 1.55342 11.3121C1.55342 11.0467 1.51651 10.8527 1.24873 10.7414C1.14561 10.6986 1.06299 10.6025 0.975686 10.5246C0.174124 9.80977 -0.204979 8.47793 0.253224 7.47773C0.563185 6.80098 0.780566 6.08086 1.11162 5.41406C1.63896 4.34766 1.88799 3.24609 1.76084 2.06016C1.73857 1.85156 1.80186 1.79004 2.02158 1.79004C7.01611 1.79707 12.0108 1.79883 17.0058 1.79531C18.6892 1.79531 20.372 1.79531 22.0554 1.7918C22.2148 1.7918 22.2687 1.82695 22.2657 1.9957C22.2546 2.54121 22.2622 3.08672 22.2605 3.63223C22.2575 3.73227 22.2747 3.83188 22.3108 3.9252C22.8745 5.28301 23.436 6.6418 23.9954 8.00156ZM5.18213 10.1408C5.13701 10.1912 5.10127 10.2305 5.06494 10.2703C4.4585 10.9641 3.69151 11.2998 2.77276 11.2664C2.57002 11.2588 2.53428 11.315 2.53487 11.5055C2.54072 14.6695 2.54072 17.8336 2.53487 20.9977C2.53487 21.1975 2.57354 21.2572 2.78682 21.2566C6.61221 21.2492 10.4382 21.2492 14.2647 21.2566C14.4728 21.2566 14.5167 21.2051 14.5161 21.0023C14.5085 18.174 14.5126 15.3451 14.5073 12.5162C14.5073 12.3305 14.5442 12.2666 14.7452 12.2672C16.5921 12.2754 18.439 12.2754 20.2858 12.2672C20.4675 12.2672 20.5026 12.3199 20.5015 12.4904C20.495 13.9629 20.4979 15.4359 20.4979 16.9084C20.4979 18.2877 20.498 19.667 20.4944 21.0463C20.4944 21.208 20.5337 21.2666 20.7001 21.2543C20.8952 21.2401 21.091 21.2401 21.286 21.2543C21.456 21.2672 21.5105 21.2227 21.5099 21.0398C21.504 17.8527 21.504 14.6656 21.5099 11.4785C21.5099 11.3027 21.4683 11.26 21.2896 11.2676C20.389 11.3074 19.6267 10.9916 19.0261 10.3184C18.8989 10.176 18.8503 10.1514 18.712 10.3107C18.315 10.766 17.7825 11.082 17.1926 11.2123C16.6028 11.3425 15.9867 11.2802 15.4349 11.0344C14.9917 10.8332 14.6038 10.5276 14.3046 10.1438C14.2624 10.1912 14.2313 10.2246 14.2015 10.2609C13.0448 11.6145 11.0192 11.6227 9.86201 10.2697C9.73311 10.1191 9.69443 10.2053 9.61182 10.2943C8.78096 11.1879 7.77725 11.4785 6.60186 11.1398C6.02119 10.9682 5.56651 10.6125 5.18213 10.1408ZM19.5054 17.274C19.5054 16.0037 19.5054 14.7334 19.5089 13.4654C19.5089 13.3148 19.4731 13.2721 19.3185 13.2732C18.1108 13.2797 16.9026 13.2779 15.695 13.2732C15.5778 13.2732 15.5151 13.2838 15.5157 13.4309C15.522 14.4906 15.522 15.5506 15.5157 16.6107C15.5157 16.7414 15.5638 16.766 15.6786 16.7613C15.8339 16.7462 15.9906 16.7561 16.1427 16.7906C16.2473 16.8174 16.3399 16.8783 16.4061 16.9636C16.4723 17.0489 16.5082 17.1538 16.5082 17.2617C16.5082 17.3697 16.4723 17.4746 16.4061 17.5599C16.3399 17.6452 16.2473 17.706 16.1427 17.7328C15.9988 17.7695 15.8494 17.7792 15.7021 17.7615C15.5421 17.7457 15.5122 17.8102 15.5134 17.9572C15.5192 18.9855 15.5222 20.0145 15.5134 21.0428C15.5134 21.232 15.5767 21.2525 15.7384 21.252C16.9224 21.2457 18.1069 21.2457 19.2921 21.252C19.4632 21.252 19.5112 21.2174 19.5101 21.0381C19.5013 19.7836 19.5054 18.5291 19.5054 17.274ZM12.0019 3.79219H20.5343C20.7687 3.79219 21.0792 3.87305 21.211 3.75527C21.3605 3.62227 21.231 3.30176 21.2626 3.06621C21.2942 2.83066 21.1964 2.79434 20.9808 2.79434C14.9968 2.80098 9.0126 2.80273 3.02822 2.79961C2.98922 2.80254 2.95004 2.80254 2.91104 2.79961C2.78213 2.77969 2.75518 2.84121 2.75928 2.95781C2.77364 3.1599 2.77364 3.36276 2.75928 3.56484C2.73701 3.77168 2.81787 3.79922 3.00362 3.79922C6.00127 3.79141 9.00069 3.78906 12.0019 3.79219ZM1.21592 7.77656C2.41533 7.77656 3.58838 7.77656 4.76143 7.77656C4.86279 7.77656 4.89561 7.7332 4.9085 7.6418C5.03506 6.75703 5.15986 5.87227 5.2958 4.98867C5.31983 4.83223 5.27178 4.81289 5.1335 4.81289C4.44092 4.81934 3.74834 4.81289 3.05576 4.81641C2.84658 4.81641 2.58701 4.75371 2.44229 4.85215C2.29756 4.95059 2.26006 5.2125 2.18154 5.40469C1.86162 6.1916 1.54463 6.97266 1.21592 7.77949V7.77656ZM12.013 7.77656C12.5269 7.77656 13.0407 7.77129 13.554 7.77949C13.6981 7.77949 13.7345 7.74551 13.7263 7.59727C13.6782 6.73477 13.6396 5.87227 13.6056 5.00859C13.6003 4.86211 13.561 4.81348 13.4052 4.81465C12.4864 4.82285 11.5685 4.82285 10.6513 4.81465C10.4855 4.81465 10.4462 4.86563 10.4397 5.02266C10.4046 5.88516 10.362 6.74785 10.312 7.61074C10.3038 7.75078 10.3442 7.78008 10.4737 7.77891C10.9858 7.77598 11.4991 7.77949 12.0118 7.77949L12.013 7.77656ZM22.8317 7.77656C22.4356 6.80508 22.0536 5.87168 21.6757 4.93652C21.6672 4.89953 21.6455 4.86691 21.6146 4.8448C21.5837 4.82268 21.5459 4.81259 21.5081 4.81641C20.6276 4.81992 19.747 4.81992 18.8661 4.81641C18.7688 4.81641 18.7302 4.83106 18.7489 4.94414C18.8855 5.84414 19.0161 6.74531 19.1468 7.64649C19.1603 7.73731 19.1966 7.77832 19.2974 7.77773C20.4646 7.77832 21.6329 7.77949 22.8317 7.77949V7.77656ZM16.4269 7.77656C16.9489 7.77656 17.4704 7.77187 17.9925 7.77949C18.1331 7.77949 18.1606 7.74023 18.1395 7.60371C18.003 6.73594 17.8688 5.86699 17.747 4.99688C17.7259 4.84746 17.6767 4.81231 17.5331 4.81289C16.6144 4.81914 15.6954 4.81914 14.7763 4.81289C14.6163 4.81289 14.5858 4.86035 14.594 5.00801C14.6437 5.87871 14.6874 6.74961 14.7253 7.6207C14.7317 7.76543 14.7897 7.77832 14.9087 7.77715C15.4149 7.77598 15.9206 7.77949 16.4269 7.77949V7.77656ZM7.59795 7.77656H9.14072C9.23623 7.77656 9.3124 7.79121 9.31651 7.64063C9.35342 6.75469 9.40147 5.86875 9.45244 4.9834C9.46006 4.85039 9.42315 4.81465 9.29014 4.81582C8.35615 4.8209 7.42236 4.8209 6.48877 4.81582C6.36221 4.81582 6.32295 4.85039 6.30479 4.97813C6.17979 5.86289 6.04795 6.74668 5.90928 7.62949C5.88643 7.77363 5.94736 7.77891 6.05752 7.77773C6.5708 7.77715 7.08467 7.77949 7.59795 7.77949V7.77656ZM16.5382 8.78203H15.0446C14.7792 8.78203 14.6808 8.91738 14.8237 9.14473C15.0728 9.54082 15.3593 9.91289 15.811 10.1039C16.7351 10.4941 17.6767 10.2246 18.3183 9.1957C18.4454 8.99238 18.3148 8.78203 18.0786 8.78203H16.5382ZM7.50303 8.78203C6.98213 8.78203 6.46065 8.78848 5.93975 8.77793C5.77744 8.77441 5.7335 8.83301 5.70889 8.98301C5.66611 9.23789 5.85889 9.36211 5.97666 9.52266C6.68975 10.4971 8.32041 10.6893 9.20869 9.17109C9.35459 8.92148 9.25791 8.77969 8.97432 8.77969L7.50303 8.78203ZM12.02 8.78203C11.4927 8.78203 10.9618 8.78613 10.4327 8.7791C10.2974 8.7791 10.2522 8.80664 10.2394 8.95488C10.2194 9.17637 10.373 9.29121 10.4737 9.44121C11.1739 10.493 12.8491 10.7191 13.7673 9.18106C13.8985 8.96133 13.7901 8.78262 13.5388 8.78262L12.02 8.78203ZM1.11572 8.78203C1.10853 8.8716 1.12489 8.96149 1.16318 9.04277C1.46963 9.93047 2.44697 10.4578 3.354 10.2146C4.01377 10.0389 4.45557 9.61348 4.69639 8.97539C4.75498 8.81895 4.71162 8.77734 4.54697 8.78027C3.99443 8.78906 3.4419 8.78379 2.88936 8.78379L1.11572 8.78203ZM21.1255 8.78203C20.5812 8.78203 20.0362 8.78672 19.4919 8.77852C19.339 8.77852 19.3161 8.81426 19.3396 8.96309C19.387 9.27305 19.6044 9.46992 19.7931 9.67734C20.723 10.6998 22.4427 10.3389 22.8845 9.03633C22.9706 8.78262 22.9706 8.78203 22.7128 8.78203H21.1255Z" fill="white"/>
</svg>
