<svg width="24" height="24" viewBox="0 0 24 24" fill="none" xmlns="http://www.w3.org/2000/svg">
<path d="M2.35619 3.33626C2.63572 3.0662 2.98051 3.18646 3.2986 3.17431C3.72985 3.15819 4.16163 3.1716 4.59316 3.1785C4.6971 3.18023 4.73885 3.15868 4.73575 3.03505C4.72445 2.69982 4.73224 2.36505 4.73388 2.02996C4.73384 1.61094 4.84992 1.5013 5.24343 1.50202C6.81558 1.5105 8.38804 1.51254 9.9608 1.50814C10.9903 1.50949 12.0202 1.51147 13.0503 1.51409C13.3159 1.51544 13.4516 1.64973 13.4576 1.9276C13.4651 2.29114 13.4646 2.65586 13.4551 3.01986C13.452 3.14787 13.4675 3.19554 13.6085 3.19389C14.3119 3.18536 15.016 3.19582 15.7175 3.19234C16.1491 3.19041 16.2612 3.29529 16.2615 3.75442C16.2618 4.54851 16.2585 5.34243 16.2513 6.1362C16.2496 6.31274 16.2499 6.40295 16.4822 6.39646C19.1777 6.32147 21.3524 8.36338 21.5892 11.1746C21.7676 13.2888 20.6023 15.3539 18.711 16.2544C18.5408 16.3349 18.5102 16.4117 18.5739 16.5879C18.6818 16.8866 18.7741 17.1931 18.8551 17.5003C18.8897 17.6285 18.9443 17.6743 19.0702 17.6722C19.3136 17.6667 19.5576 17.6784 19.8018 17.6755C20.0019 17.6737 20.1332 17.7655 20.1938 17.9641C20.5826 19.2393 20.9708 20.5143 21.3582 21.7893C21.3974 21.9164 21.4131 22.0508 21.44 22.182L21.3643 22.7455C21.2917 22.7708 21.2936 22.853 21.271 22.9039C20.993 23.4853 20.4284 23.849 19.8341 23.7963C19.1747 23.7376 18.7073 23.3813 18.495 22.723C18.1692 21.7109 17.867 20.69 17.5577 19.6727C17.4837 19.4308 17.414 19.1871 17.3359 18.9464C17.2677 18.7377 17.32 18.5787 17.4896 18.4521C17.6992 18.2956 17.9019 18.1285 18.1164 17.9774C18.2091 17.9121 18.221 17.849 18.1871 17.745C18.0793 17.415 17.9758 17.0833 17.8804 16.7493C17.8467 16.6312 17.813 16.5885 17.6805 16.6197C17.26 16.7229 16.8266 16.7564 16.3962 16.719C16.2661 16.7069 16.2237 16.746 16.2338 16.8843C16.2415 17.0516 16.2399 17.2192 16.2289 17.3862C16.2167 17.6367 16.0835 17.7774 15.8432 17.7762C15.0226 17.7775 14.202 17.7706 13.3808 17.7718L9.29153 17.7596L5.13777 17.7539C4.37275 17.7522 3.60702 17.7474 2.84225 17.7522C2.41003 17.7546 2.30522 17.6461 2.30612 17.1865C2.31034 15.1115 2.31302 13.0368 2.31415 10.9625C2.31818 8.78555 2.32781 6.60878 2.32837 4.43245C2.32852 4.21324 2.36881 3.98874 2.29768 3.77201L2.35619 3.33626ZM12.434 8.87499C12.3788 8.86687 12.3499 8.85967 12.3236 8.85874C11.621 8.83004 10.9182 8.80211 10.2154 8.77495C8.46884 8.70625 6.69113 8.71554 4.94525 8.64772C4.56709 8.63335 4.59864 8.71708 4.61333 8.32674C4.60597 8.52247 4.6167 8.28293 4.61333 8.2392C4.59244 8.05933 4.60717 7.99245 4.80585 8.00576C5.41923 8.00576 6.11014 8.01327 6.72963 8.03779L10.2154 8.1142L12.811 8.13071C12.8548 8.13601 12.8992 8.13035 12.9406 8.1142C12.9819 8.09804 13.019 8.07186 13.0487 8.03779C13.6807 7.32117 14.4965 6.81018 15.3985 6.56592C15.5102 6.5352 15.5402 6.48363 15.5403 6.37402C15.5393 5.60971 15.5414 4.84505 15.5465 4.08007C15.547 3.97582 15.5145 3.94157 15.4146 3.9428C14.802 3.94502 14.1897 3.94414 13.5776 3.94014C13.4791 3.9398 13.4535 3.97139 13.4557 4.08074C13.4627 4.47251 13.463 4.86504 13.4479 5.25827C13.4382 5.50201 13.3028 5.62176 13.0677 5.62372C12.5401 5.62803 12.013 5.62416 11.4855 5.62319C10.7018 5.62225 9.91791 5.62108 9.13389 5.6197C8.37093 5.61945 7.60813 5.62217 6.84484 5.62011C6.26176 5.61802 5.67899 5.61776 5.09587 5.6033C4.84114 5.59648 4.72276 5.44646 4.72322 5.1831C4.72298 4.82003 4.71825 4.4569 4.72361 4.09407C4.72547 3.96704 4.69422 3.92296 4.56277 3.92484C4.11131 3.93211 3.65825 3.92617 3.20598 3.91858C3.07397 3.91625 3.02256 3.95524 3.04078 4.10467C3.04992 4.24205 3.05022 4.37991 3.04168 4.51733C3.03888 6.06176 3.03631 7.60584 3.03398 9.14955C3.03074 10.6861 3.02748 12.2228 3.02419 13.7597C3.02218 14.7936 3.0241 15.8276 3.0187 16.8617C3.01768 16.9741 3.03708 17.01 3.15205 17.0092C3.97297 17.0056 4.79391 17.0102 5.61531 17.0114C7.1875 17.014 8.76014 17.0161 10.3332 17.0176C11.9961 17.0212 13.6591 17.0283 15.3225 17.0284C15.3918 17.0286 15.5333 17.09 15.5136 16.9221C15.4987 16.7944 15.6154 16.6253 15.3808 16.5567C14.0127 16.1551 12.9868 15.3003 12.3032 13.9924C12.2838 13.9435 12.2501 13.9024 12.207 13.8748C12.1638 13.8473 12.1134 13.8348 12.063 13.8392C11.5898 13.8285 11.1168 13.8073 10.6433 13.7901C9.49577 13.7478 8.32411 13.7375 7.17572 13.6959C6.45082 13.6959 5.44798 13.7258 4.57132 13.6959C4.4531 13.6914 4.39192 13.5377 4.41305 13.3929C4.41305 13.229 4.42009 13.2287 4.41305 13.0831C4.41021 12.9701 4.45657 12.9321 4.57132 12.9372C5.24571 12.968 5.91569 12.9116 6.59023 12.9372L11.9371 13.0911C11.733 12.3913 11.6716 11.6543 11.757 10.9281C11.8424 10.2019 12.0727 9.50254 12.4329 8.87541L12.434 8.87499ZM17.3839 7.20034C15.1947 6.76696 12.9418 8.36447 12.5227 10.6472C12.0621 13.1543 13.5544 15.4517 15.9482 15.9247C18.1327 16.355 20.3901 14.7452 20.8007 12.463C21.2518 9.95924 19.7675 7.67411 17.3836 7.20265L17.3839 7.20034ZM12.7326 4.74818C12.7357 3.94891 12.7341 3.18548 12.7458 2.42284C12.7476 2.27931 12.7111 2.26157 12.5855 2.26195C11.2086 2.26333 9.83127 2.25463 8.45431 2.25188C7.50129 2.24961 6.54837 2.25501 5.59566 2.25042C5.47918 2.24979 5.44289 2.27686 5.44427 2.40495C5.45253 3.18213 5.45603 3.95978 5.45477 4.73791C5.45443 4.83274 5.4652 4.85731 5.56369 4.85352C5.81964 4.84285 6.07643 4.85115 6.33351 4.84889C7.08945 4.84968 7.84537 4.85066 8.60126 4.85184C9.36468 4.85294 10.1278 4.85459 10.8907 4.85679L12.5759 4.85774C12.6701 4.86098 12.765 4.86728 12.7322 4.75049L12.7326 4.74818ZM19.8177 23.0543C19.8616 23.0543 19.9173 23.0589 19.9727 23.0535C20.4995 23.0049 20.8216 22.4936 20.6573 21.9473C20.3462 20.9091 20.0241 19.8734 19.7072 18.8373C19.5767 18.412 19.5765 18.4055 19.1488 18.4245C18.9879 18.4321 18.817 18.3545 18.6637 18.481C18.5104 18.6076 18.3413 18.7348 18.175 18.8535C18.1585 18.8621 18.1438 18.8741 18.1317 18.8887C18.1197 18.9033 18.1105 18.9202 18.1047 18.9386C18.099 18.9569 18.0967 18.9763 18.0982 18.9955C18.0996 19.0147 18.1047 19.0335 18.1131 19.0507C18.4659 20.197 18.8128 21.3459 19.1686 22.4915C19.2676 22.8066 19.4949 22.9844 19.8177 23.0543Z" fill="white"/>
<path d="M8.39316 11.0004C8.33724 10.9958 8.28107 10.9955 8.2251 10.9995C8.12115 11.0136 8.08816 10.9667 8.09306 10.8645C8.10039 10.697 8.10717 10.5293 8.10274 10.3617C8.09892 10.2281 8.18539 10.2496 8.25701 10.2508C8.6398 10.257 9.02279 10.2667 9.4059 10.2753C10.0739 10.2878 10.7422 10.3092 11.4105 10.3129C11.5718 10.3143 11.6445 10.3566 11.6049 10.5325C11.6009 10.5613 11.5994 10.5904 11.6004 10.6194C11.5864 11.0808 11.5867 11.0773 11.1484 11.0658C10.2298 11.0424 9.31074 11.023 8.39194 11.0014L8.39316 11.0004Z" fill="white"/>
<path d="M4.84917 10.8498C4.64823 10.8982 4.60605 10.7853 4.62015 10.5532C4.64693 10.1063 4.63211 10.1033 5.05823 10.1142C5.45349 10.1247 5.84894 10.1435 6.24474 10.1494C6.3653 10.151 6.40517 10.1953 6.38853 10.3167C6.37847 10.4034 6.37285 10.4906 6.37168 10.5779C6.35948 10.9067 6.35971 10.9096 6.05429 10.8991C5.66385 10.8856 5.2756 10.8677 4.84917 10.8498Z" fill="white"/>
<path d="M19.8233 12.2205C19.6273 13.2861 18.9703 14.1907 17.8221 14.6901C17.684 14.75 17.6154 14.7369 17.5815 14.5699C17.5476 14.4028 17.4212 14.2204 17.4553 14.0757C17.4864 13.94 17.7157 13.9308 17.8529 13.8531C18.3396 13.5771 18.7251 13.14 18.9491 12.6102C19.1731 12.0804 19.2229 11.4878 19.0907 10.9252C19.0491 10.7565 19.0972 10.7129 19.2285 10.6786C19.3449 10.6524 19.4586 10.6147 19.568 10.5658C19.715 10.4943 19.751 10.558 19.7834 10.6983C19.8856 11.1365 19.9135 11.5743 19.8233 12.2205Z" fill="white"/>
</svg>
