<svg width="24" height="24" viewBox="0 0 24 24" fill="none" xmlns="http://www.w3.org/2000/svg">
<path d="M17.8262 11.6382C17.4937 11.5938 17.1919 11.5632 16.8944 11.5076C16.7825 11.487 16.7369 11.5438 16.6781 11.6026C16.3462 11.9332 16.0112 12.2613 15.6862 12.5988C15.6411 12.6503 15.585 12.6908 15.522 12.7176C15.459 12.7443 15.3908 12.7565 15.3225 12.7532C14.4556 12.7457 13.5887 12.7532 12.7219 12.747C12.6651 12.7437 12.6084 12.7544 12.5567 12.778C12.5049 12.8017 12.4597 12.8376 12.425 12.8826C11.6425 13.7851 10.8531 14.6813 10.0719 15.5851C10.0275 15.6411 9.9702 15.6856 9.90489 15.7146C9.83958 15.7437 9.76821 15.7565 9.69687 15.752C8.33812 15.7457 6.97937 15.752 5.62 15.7451C5.55568 15.7417 5.49147 15.7534 5.43252 15.7794C5.37357 15.8053 5.32154 15.8447 5.28062 15.8945C3.9175 17.3776 2.54812 18.8551 1.18687 20.3407C1.06187 20.4776 0.987498 20.487 0.867498 20.3501C0.747498 20.2132 0.532499 20.1157 0.524999 19.9901C0.517499 19.8645 0.721874 19.7345 0.837499 19.6088C2.2125 18.1163 3.5875 16.6236 4.9625 15.1307C5.00204 15.0845 5.05188 15.0482 5.108 15.0248C5.16412 15.0013 5.22496 14.9914 5.28562 14.9957C6.65187 15.0001 8.01875 14.9957 9.38562 15.002C9.44987 15.0052 9.51394 14.9926 9.57222 14.9654C9.6305 14.9381 9.68123 14.8971 9.72 14.8457C10.5012 13.9426 11.2925 13.0476 12.0744 12.1445C12.1144 12.094 12.1662 12.0541 12.2253 12.0284C12.2844 12.0026 12.3489 11.9919 12.4131 11.997C13.2881 12.0026 14.1631 11.997 15.0381 12.002C15.0954 12.0065 15.1529 11.9975 15.2061 11.9758C15.2593 11.9541 15.3066 11.9202 15.3444 11.877C15.4906 11.7151 15.6462 11.5601 15.8075 11.4132C15.9375 11.2945 15.9775 11.242 15.7681 11.1476C14.1612 10.4251 13.0875 9.21946 12.5912 7.52696C11.6625 4.36133 13.7725 1.01321 17.0287 0.464458C20.1706 -0.0630419 23.0881 2.02696 23.5594 5.17508C23.8094 6.83821 23.3594 8.32696 22.2831 9.62071C22.1749 9.74037 22.1165 9.8969 22.12 10.0582C22.125 14.4857 22.1279 18.9134 22.1288 23.3413C22.1288 23.5551 22.0962 23.6232 21.86 23.6232C14.7842 23.6153 7.70875 23.6153 0.633748 23.6232C0.441248 23.6232 0.391871 23.5901 0.369996 23.3795C0.319996 22.9032 0.503122 22.567 0.812497 22.2213C2.4425 20.3901 4.05 18.5395 5.65937 16.6901C5.71052 16.6238 5.77718 16.5712 5.85347 16.5367C5.92976 16.5023 6.01335 16.4871 6.09687 16.4926C7.4325 16.5013 8.76812 16.4926 10.1031 16.5007C10.1711 16.506 10.2392 16.4928 10.3003 16.4627C10.3615 16.4326 10.4134 16.3865 10.4506 16.3295C11.1094 15.4382 11.7787 14.5551 12.4369 13.6645C12.4744 13.6074 12.5265 13.5616 12.5879 13.5318C12.6493 13.502 12.7176 13.4893 12.7856 13.4951C13.7856 13.502 14.7856 13.4951 15.7856 13.5013C15.8464 13.5045 15.9072 13.494 15.9634 13.4706C16.0196 13.4472 16.0699 13.4116 16.1106 13.3663C16.6669 12.7945 17.2369 12.2288 17.8262 11.6382ZM18 1.12946C17.0362 1.12872 16.0937 1.41371 15.2918 1.9484C14.4899 2.4831 13.8645 3.24351 13.4946 4.13354C13.1247 5.02358 13.0269 6.00329 13.2136 6.94886C13.4003 7.89444 13.8632 8.76345 14.5436 9.44608C15.224 10.1287 16.0916 10.5943 17.0365 10.7841C17.9815 10.9738 18.9615 10.8792 19.8528 10.5121C20.744 10.1451 21.5064 9.52209 22.0436 8.72188C22.5809 7.92168 22.8689 6.98017 22.8712 6.01633C22.8726 4.72255 22.3603 3.48115 21.4469 2.56485C20.5335 1.64854 19.2938 1.13227 18 1.12946ZM21.3712 10.4926C20.9488 10.8092 20.4835 11.0643 19.9894 11.2501C19.8706 11.2926 19.8712 11.3688 19.8712 11.4663C19.8712 15.2051 19.8712 18.9436 19.8712 22.682C19.8712 22.832 19.9056 22.8801 20.0587 22.8745C20.4094 22.862 20.7619 22.857 21.1119 22.8745C21.3231 22.8857 21.3769 22.827 21.3769 22.6126C21.3694 18.6634 21.3675 14.7143 21.3712 10.7651V10.4926ZM19.1212 17.2026C19.1212 15.3763 19.1212 13.5497 19.1212 11.7226C19.1212 11.6601 19.1631 11.5695 19.0862 11.5351C18.9981 11.4951 18.9481 11.5832 18.895 11.6357C18.5075 12.0213 18.1231 12.4095 17.7337 12.7932C17.6968 12.8263 17.6677 12.867 17.6482 12.9126C17.6288 12.9582 17.6196 13.0074 17.6212 13.057C17.6246 16.2728 17.6246 19.4888 17.6212 22.7051C17.6212 22.8357 17.6537 22.877 17.7875 22.8738C18.1625 22.8645 18.5375 22.8601 18.9125 22.8738C19.0869 22.8807 19.1294 22.8351 19.1288 22.6588C19.1194 20.8407 19.125 19.0213 19.125 17.2026H19.1212ZM16.8712 13.7026C16.8406 13.7095 16.8219 13.7076 16.8163 13.7157C16.4963 14.1757 16.0562 14.3407 15.5106 14.2482C15.3662 14.2232 15.3706 14.3107 15.3706 14.4151C15.3706 17.1772 15.3706 19.9392 15.3706 22.7013C15.3706 22.8588 15.4275 22.8745 15.5581 22.872C15.9169 22.8645 16.2762 22.8582 16.635 22.872C16.8225 22.8801 16.8794 22.8401 16.8794 22.6376C16.8715 19.7268 16.8696 16.8163 16.8737 13.9063L16.8712 13.7026ZM13.125 18.5626C13.125 19.9376 13.125 21.3126 13.1212 22.6876C13.1212 22.8407 13.1594 22.8838 13.3125 22.8795C13.695 22.8676 14.0775 22.8695 14.46 22.8795C14.5937 22.8795 14.6269 22.8426 14.6269 22.7113C14.6231 19.9476 14.6231 17.1836 14.6269 14.4195C14.6269 14.2876 14.5925 14.2488 14.4594 14.252C14.0844 14.2613 13.7094 14.2657 13.3344 14.252C13.1569 14.2445 13.1181 14.2945 13.1187 14.4682C13.1281 15.827 13.125 17.1932 13.125 18.5626ZM12.375 15.0001C11.92 15.6063 11.5137 16.1663 11.0856 16.7095C10.9389 16.8883 10.8625 17.1145 10.8706 17.3457C10.8794 19.1182 10.8794 20.8905 10.8706 22.6626C10.8706 22.8426 10.9187 22.882 11.0894 22.8757C11.4556 22.8613 11.8231 22.8626 12.19 22.8757C12.3487 22.8813 12.3775 22.8282 12.3775 22.6813C12.3712 21.6188 12.3775 20.5563 12.3775 19.4938L12.375 15.0001ZM7.875 20.0838C7.875 19.2013 7.87125 18.3188 7.87875 17.437C7.87875 17.2851 7.84187 17.2401 7.6875 17.2451C7.30562 17.257 6.9225 17.2545 6.54 17.2451C6.4075 17.2451 6.3725 17.2807 6.37312 17.4126C6.37729 19.1772 6.37729 20.9415 6.37312 22.7057C6.37312 22.8376 6.40687 22.877 6.54 22.8738C6.9225 22.8645 7.305 22.8626 7.6875 22.8738C7.84125 22.8782 7.88 22.8345 7.87875 22.682C7.875 21.8157 7.875 20.9488 7.875 20.0826V20.0838ZM10.125 20.0838C10.125 19.202 10.1212 18.3195 10.1287 17.4376C10.1287 17.2857 10.0912 17.2407 9.9375 17.2457C9.555 17.2576 9.1725 17.2551 8.79 17.2457C8.65687 17.2457 8.6225 17.2813 8.62312 17.4132C8.62687 19.1778 8.62687 20.9422 8.62312 22.7063C8.62312 22.8382 8.65687 22.8776 8.79 22.8745C9.17187 22.8651 9.555 22.8632 9.9375 22.8745C10.0906 22.8788 10.13 22.8351 10.1287 22.6826C10.125 21.8157 10.125 20.9488 10.125 20.082V20.0838ZM5.625 17.8751C5.11937 18.4507 4.6525 18.9838 4.1825 19.5145C4.16064 19.5414 4.14432 19.5724 4.13445 19.6056C4.12459 19.6389 4.12137 19.6737 4.125 19.7082C4.125 20.7082 4.12812 21.7082 4.125 22.7082C4.125 22.8401 4.15875 22.8795 4.29187 22.8763C4.68187 22.8676 5.07229 22.8676 5.46312 22.8763C5.59562 22.8763 5.63312 22.8407 5.63062 22.7088C5.62187 22.2795 5.6275 21.8501 5.6275 21.4201L5.625 17.8751ZM3.375 20.442L1.25 22.8713C1.94687 22.8713 2.59375 22.8713 3.24062 22.8713C3.33625 22.8713 3.37687 22.8532 3.37625 22.7463C3.375 22.0001 3.37812 21.2501 3.37812 20.4407L3.375 20.442Z" fill="white"/>
<path d="M2.62883 13.5C2.62883 13.4688 2.62883 13.4375 2.62883 13.4063C2.62883 13.1969 2.69757 12.9319 2.59632 12.7938C2.49507 12.6556 2.22133 12.7556 2.01883 12.755C1.90445 12.755 1.87695 12.7194 1.87695 12.6094C1.8807 11.2044 1.8807 9.79919 1.87695 8.39377C1.87695 8.28127 1.9082 8.23502 2.0207 8.25315C2.02838 8.25408 2.03615 8.25408 2.04383 8.25315C2.23508 8.23627 2.49758 8.34127 2.59945 8.21065C2.70133 8.08002 2.62758 7.83565 2.62883 7.64377C2.62883 7.39377 2.63508 7.14378 2.62883 6.89378C2.62508 6.78003 2.66195 6.7544 2.7732 6.75003C3.38133 6.72753 3.38132 6.7244 3.38132 7.34003C3.38132 7.59753 3.38695 7.85565 3.38132 8.11252C3.37757 8.2269 3.41445 8.27065 3.5257 8.25315C3.5334 8.25252 3.54113 8.25252 3.54883 8.25315C3.73633 8.2569 3.99258 8.19065 4.09008 8.28252C4.21508 8.40752 4.13133 8.6644 4.13195 8.86377C4.13508 10.0894 4.13195 11.315 4.1382 12.5406C4.1382 12.7156 4.0982 12.7713 3.92195 12.7556C3.7457 12.74 3.52508 12.6931 3.42508 12.7788C3.30633 12.8806 3.39008 13.1144 3.3857 13.2906C3.37883 13.5638 3.3782 13.8375 3.3857 14.11C3.3857 14.2238 3.35258 14.2494 3.24195 14.2538C2.6332 14.2763 2.63383 14.28 2.63383 13.6875L2.62883 13.5ZM3.37883 10.5V9.56252C3.37883 8.99315 3.37883 9.00002 2.81633 8.99565C2.6632 8.99565 2.62383 9.03565 2.62883 9.18815C2.63695 9.93815 2.62883 10.6881 2.62883 11.4381C2.62883 12.0156 2.62883 12.0106 3.21508 12.0006C3.34758 12.0006 3.38445 11.9644 3.38195 11.8325C3.37508 11.39 3.3782 10.945 3.3782 10.5H3.37883Z" fill="white"/>
<path d="M7.1251 9.01868C7.1251 9.57305 7.12072 10.1274 7.1251 10.6812C7.1251 10.8224 7.10635 10.8887 6.9376 10.8806C6.75447 10.8712 6.5001 10.7937 6.40322 10.9137C6.30635 11.0337 6.37197 11.2693 6.3701 11.4549C6.3701 11.7049 6.36385 11.9549 6.3701 12.2049C6.37447 12.3299 6.35072 12.3774 6.20947 12.3793C5.61822 12.3868 5.61823 12.3924 5.61823 11.7949C5.61823 11.5449 5.61198 11.2949 5.61823 11.0449C5.6226 10.9199 5.59822 10.8499 5.45697 10.8749C5.43347 10.8768 5.40985 10.8768 5.38635 10.8749C4.86572 10.8749 4.86572 10.8749 4.86572 10.3418C4.86572 9.3418 4.86947 8.3418 4.86572 7.3418C4.86572 7.17993 4.88322 7.10243 5.07447 7.11868C5.24885 7.13368 5.49197 7.2018 5.58635 7.0868C5.68072 6.9718 5.61635 6.74618 5.61823 6.56805C5.61823 6.31055 5.62448 6.05243 5.61823 5.79555C5.61385 5.67055 5.6376 5.62305 5.77885 5.62118C6.3701 5.61305 6.3701 5.60743 6.3701 6.20555C6.3701 6.45555 6.37635 6.70555 6.3701 6.95555C6.36572 7.08055 6.3901 7.15055 6.53135 7.12618C6.55485 7.1243 6.57847 7.1243 6.60197 7.12618C7.1226 7.12618 7.1226 7.12618 7.1226 7.6368L7.1251 9.01868ZM6.3751 8.98555V8.44743C6.3751 7.85368 6.3751 7.85868 5.77448 7.87243C5.6451 7.87555 5.62197 7.91743 5.62322 8.03305C5.62885 8.53993 5.62322 9.04743 5.62322 9.55493C5.62322 10.1481 5.62323 10.1431 6.22385 10.1293C6.35323 10.1293 6.3776 10.0849 6.3751 9.9693C6.3751 9.6418 6.3751 9.31243 6.3751 8.98555Z" fill="white"/>
<path d="M8.62509 8.99506C8.62509 8.80006 8.62009 8.60506 8.62509 8.41006C8.62884 8.29819 8.61134 8.24131 8.47634 8.24756C8.28384 8.25756 8.01259 8.31756 7.91384 8.21819C7.78884 8.08819 7.87571 7.82069 7.87384 7.61319C7.86946 6.89506 7.87697 6.17569 7.86884 5.45881C7.86884 5.30444 7.89009 5.23381 8.06571 5.24881C8.24134 5.26381 8.48259 5.31131 8.58322 5.22069C8.70197 5.11319 8.61509 4.86944 8.62009 4.68506C8.62696 4.43506 8.62884 4.18506 8.62009 3.93506C8.61446 3.80194 8.63634 3.74756 8.79259 3.74756C9.37197 3.74756 9.37197 3.74006 9.37197 4.32069C9.37197 4.57819 9.37634 4.83569 9.37197 5.09319C9.37197 5.20506 9.38572 5.26194 9.52072 5.25506C9.71384 5.24569 9.98509 5.18569 10.0832 5.28506C10.2082 5.41506 10.122 5.68256 10.1232 5.89006C10.1282 6.60819 10.1232 7.32756 10.1288 8.04444C10.1288 8.19881 10.107 8.26881 9.93196 8.25444C9.75696 8.24006 9.51447 8.19194 9.41447 8.28194C9.29509 8.38944 9.38197 8.63381 9.37697 8.81819C9.37009 9.06819 9.36822 9.31819 9.37697 9.56819C9.38197 9.70131 9.36009 9.75569 9.20447 9.75569C8.62447 9.75569 8.62446 9.76319 8.62446 9.18256L8.62509 8.99506ZM8.62509 6.72881V6.91631C8.62509 7.53194 8.62509 7.53194 9.23447 7.50194C9.24215 7.501 9.24991 7.501 9.25759 7.50194C9.34947 7.51506 9.37759 7.47506 9.37634 7.38381C9.37551 6.96131 9.37509 6.53986 9.37509 6.11944C9.37509 6.02819 9.34571 6.00694 9.25634 6.00006C8.62384 5.94819 8.62384 5.94569 8.62384 6.56256L8.62509 6.72881Z" fill="white"/>
<path d="M13.875 5.98507C13.8781 5.16909 14.1231 4.37237 14.5791 3.69568C15.0351 3.01899 15.6815 2.49273 16.4366 2.18347C17.1917 1.87422 18.0216 1.79586 18.8212 1.95831C19.6208 2.12076 20.3543 2.51672 20.9289 3.0961C21.5035 3.67548 21.8933 4.41226 22.0491 5.21323C22.2049 6.0142 22.1196 6.84338 21.8041 7.59588C21.4885 8.34838 20.9569 8.99039 20.2764 9.4407C19.596 9.89101 18.7972 10.1294 17.9813 10.1257C16.8881 10.1196 15.8421 9.68027 15.0723 8.90409C14.3026 8.12792 13.872 7.0782 13.875 5.98507ZM14.625 5.98507C14.6208 6.65248 14.8146 7.30615 15.1819 7.86344C15.5492 8.42072 16.0734 8.8566 16.6884 9.11597C17.3034 9.37534 17.9814 9.44655 18.6368 9.32059C19.2923 9.19464 19.8957 8.87718 20.3707 8.40836C20.8457 7.93953 21.1711 7.34038 21.3056 6.68665C21.4402 6.03293 21.3779 5.35399 21.1266 4.73567C20.8754 4.11734 20.4464 3.5874 19.894 3.21283C19.3416 2.83827 18.6905 2.6359 18.0231 2.63132C17.1284 2.62649 16.2683 2.97661 15.6313 3.60493C14.9943 4.23324 14.6324 5.08849 14.625 5.98319V5.98507Z" fill="white"/>
<path d="M16.5 7.34193C16.5 6.74381 16.5 6.75193 17.0694 6.74755C17.2362 6.74755 17.2712 6.81005 17.2494 6.94693C17.2275 7.0838 17.2681 7.13818 17.4219 7.13443C17.7175 7.12005 18.015 7.13443 18.3119 7.12943C18.5837 7.12943 18.7494 6.97756 18.7494 6.74881C18.7494 6.52006 18.5787 6.38381 18.3006 6.38068C18.0819 6.38068 17.8631 6.38068 17.6444 6.38068C17.0406 6.37256 16.5531 5.93318 16.505 5.35568C16.4788 5.07275 16.5618 4.79052 16.7369 4.56674C16.9119 4.34296 17.166 4.19457 17.4469 4.15193C17.6225 4.12443 17.63 4.0563 17.6287 3.91755C17.6237 3.37943 17.6287 3.38943 18.1694 3.37693C18.3569 3.37256 18.3825 3.43256 18.38 3.59818C18.3706 4.13193 18.38 4.13068 18.92 4.13256C19.1075 4.13256 19.3575 4.07006 19.4606 4.16506C19.5856 4.27693 19.4962 4.53193 19.4981 4.7238C19.5044 5.25755 19.4981 5.25068 18.9781 5.26068C18.805 5.26381 18.7137 5.23193 18.75 5.03818C18.7712 4.92505 18.7344 4.8738 18.6025 4.87818C18.29 4.8888 17.9775 4.87818 17.665 4.88318C17.4112 4.88693 17.2481 5.04131 17.2519 5.26193C17.2556 5.48256 17.4175 5.62631 17.6762 5.63068C17.9031 5.63443 18.1294 5.63068 18.3556 5.63068C18.9606 5.63818 19.4469 6.07568 19.4962 6.65443C19.5226 6.93755 19.4396 7.22003 19.2644 7.44395C19.0891 7.66788 18.8349 7.81631 18.5537 7.8588C18.3794 7.88693 18.3712 7.95443 18.3725 8.0938C18.3775 8.63193 18.3725 8.62193 17.8319 8.63443C17.6444 8.6388 17.6187 8.5788 17.6212 8.41318C17.6306 7.87943 17.6212 7.88005 17.0812 7.87818C16.8937 7.87818 16.6525 7.94068 16.5394 7.84568C16.4262 7.75068 16.515 7.49256 16.5 7.34193Z" fill="white"/>
</svg>
