<svg width="23" height="23" viewBox="0 0 23 23" fill="none" xmlns="http://www.w3.org/2000/svg">
<path d="M0.00341797 5.51685C0.0187532 5.50295 0.041277 5.49193 0.0484654 5.47468C0.304852 4.86414 0.641748 4.63603 1.3002 4.63555C2.82415 4.63555 4.34761 4.63124 5.87155 4.63987C6.0733 4.63987 6.13608 4.59194 6.12937 4.38588C6.11452 3.93828 6.12937 3.48972 6.13416 3.04404C6.1495 2.07025 6.9685 1.19758 8.08174 1.1995C10.3446 1.20333 12.608 1.19279 14.8709 1.20429C15.8423 1.20956 16.541 1.76978 16.7773 2.68702C16.8468 2.95634 16.8315 3.23525 16.8319 3.51081C16.8319 3.81703 16.842 4.12374 16.8281 4.42949C16.8209 4.59578 16.866 4.64226 17.0366 4.6413C18.2318 4.63364 19.4268 4.63268 20.6217 4.63843C21.053 4.63843 21.4886 4.61015 21.9199 4.65616C22.5017 4.71846 22.9138 5.15695 22.9493 5.73921C22.9536 5.81349 22.9521 5.88825 22.9521 5.96301C22.9521 8.68166 22.9488 11.3998 22.9555 14.1185C22.9555 14.6662 22.7878 15.098 22.2692 15.341C22.1533 15.3956 22.1907 15.4896 22.1907 15.5715C22.1887 17.2517 22.1887 18.932 22.1907 20.6125C22.1907 21.2225 22.0416 21.8447 21.5001 22C21.5001 22 21.0469 22.0166 20.8943 22.0166C14.6203 22.0166 8.34627 21.9955 2.07224 22C1.18567 22 0.754364 21.2374 0.762511 20.5511C0.782639 18.8935 0.767783 17.2354 0.771617 15.5773C0.771617 15.4455 0.75197 15.3626 0.614912 15.3036C0.292871 15.1651 0.154374 14.8618 0.00581352 14.5718L0.00341797 5.51685ZM11.4727 5.5H3.50006C2.7333 5.5 2.06936 5.47468 1.3002 5.47468C0.939827 5.47468 1.00054 5.65975 1.00006 6C1.00006 8.77951 1.00006 11.2237 1.00006 14C1.00006 14.3034 1.19623 14.4569 1.50006 14.5C2.18679 14.5958 2.81381 14.9051 3.50006 15C4.96298 15.2013 6.03682 15.2978 7.50006 15.5C8.19446 15.5958 9.0263 15.7618 9.71926 15.872C9.93395 15.906 9.97325 15.8351 9.9536 15.6477C9.94354 15.5211 9.94354 15.3938 9.9536 15.2672C9.9704 14.9931 10.0869 14.7346 10.2811 14.5404C10.4753 14.3462 10.7338 14.2297 11.0079 14.2129C11.3132 14.1976 11.6203 14.1985 11.9256 14.2129C12.4168 14.233 12.8146 14.5603 12.9579 15.0319C13.0221 15.2447 13.0091 15.4632 12.9996 15.6765C12.9919 15.8499 13.0312 15.9017 13.2157 15.8753C14.4564 15.6966 15.6981 15.5293 16.9393 15.3578C18.5131 15.1407 19.9258 14.7128 21.5001 14.5C21.928 14.442 22.0001 14.5488 22.0001 14.1185V10.0606V6C22.0001 5.4302 22.0608 5.5 21.5001 5.5H11.4727ZM11.5001 21H20.8943C21.2528 21 21.2887 20.9717 21.2897 20.6583C21.2935 18.993 21.3343 17.3351 21.3381 15.6697C21.3381 15.5605 21.4033 15.5049 21.2897 15.5231C20.9514 15.5777 20.6106 15.6228 20.2709 15.6697L15.5716 16.3177C14.7737 16.4274 13.9757 16.5381 13.1754 16.6421C13.0365 16.6603 12.9948 16.7169 13.0005 16.8554C13.0115 17.1309 13.0096 17.4079 13.0005 17.6839C12.9925 17.9704 12.8759 18.2431 12.6744 18.4469C12.4728 18.6506 12.2014 18.7702 11.9151 18.7814C11.6242 18.7929 11.3323 18.7924 11.0414 18.7814C10.7552 18.7707 10.4836 18.6518 10.2817 18.4486C10.0798 18.2454 9.96251 17.9731 9.9536 17.6868C9.94354 17.4108 9.93826 17.1338 9.9536 16.8582C9.96271 16.6982 9.89849 16.6579 9.75807 16.6397C8.87103 16.5218 7.98494 16.3977 7.09789 16.276C5.30941 16.0306 3.65883 15.8308 1.87179 15.5773C1.69927 15.5528 1.73247 15.733 1.73342 15.9084C1.74061 17.5061 1.73342 18.8276 1.73342 20.4239C1.73342 20.8941 1.59732 21 2.07224 21H11.5001ZM11.4727 1.96482C10.3528 1.96482 9.23284 1.96099 8.11289 1.96482C7.3629 1.96866 6.9038 2.42919 6.89182 3.1787C6.88703 3.47007 6.88895 3.76096 6.89182 4.05233C6.89182 4.23779 6.83048 4.48364 6.92441 4.59194C7.03463 4.71846 7.28958 4.61351 7.47935 4.63651C7.64037 4.65664 7.66146 4.579 7.65906 4.44482C7.65235 4.01927 7.65235 3.59371 7.65906 3.16816C7.6629 2.86721 7.79852 2.73159 8.10139 2.73111C10.3563 2.72855 12.6114 2.72855 14.8666 2.73111C15.1542 2.73111 15.2922 2.86912 15.2979 3.1557C15.3046 3.45426 15.2979 3.7533 15.2979 4.05185C15.2979 4.64753 15.2979 4.64082 15.8888 4.64082C16.0479 4.64082 16.0685 4.58092 16.0661 4.44674C16.0589 4.04371 16.0661 3.64068 16.0633 3.23717C16.0599 2.41961 15.6061 1.96626 14.7866 1.9653C13.6828 1.96498 12.5782 1.96482 11.4727 1.96482ZM11.479 4.63555C12.4269 4.63555 13.3753 4.6298 14.3232 4.64035C14.5072 4.64035 14.5465 4.58428 14.5374 4.41655C14.5247 4.17039 14.5247 3.92374 14.5374 3.67758C14.5441 3.53381 14.5043 3.4902 14.3548 3.49212C13.6906 3.50074 13.0259 3.49547 12.3617 3.49547C11.1224 3.49547 9.88267 3.50074 8.64339 3.49068C8.4517 3.49068 8.40378 3.54292 8.41768 3.72454C8.43288 3.96392 8.43288 4.20401 8.41768 4.44338C8.40905 4.59769 8.45075 4.64322 8.60937 4.64178C9.56734 4.63076 10.5234 4.63555 11.479 4.63555ZM10.7151 16.4974C10.7151 16.863 10.7108 17.2291 10.7151 17.5948C10.7189 17.867 10.8589 18.0132 11.1272 18.0208C11.3587 18.0271 11.5902 18.0266 11.8216 18.0208C12.0905 18.0141 12.2366 17.8708 12.2386 17.6001C12.243 16.8608 12.243 16.1215 12.2386 15.3822C12.2386 15.1143 12.089 14.9758 11.8159 14.9696C11.5993 14.9648 11.3846 14.9662 11.166 14.9696C10.8545 14.9744 10.718 15.1105 10.7151 15.4225C10.7122 15.7804 10.7146 16.1389 10.7151 16.4974Z" fill="white"/>
</svg>
