<svg width="24" height="24" viewBox="0 0 24 24" fill="none" xmlns="http://www.w3.org/2000/svg">
<path d="M2.25436 19.9082C2.25436 20.9919 2.24936 22.0144 2.25936 23.0369C2.25936 23.2151 2.21373 23.2538 2.04186 23.2507C1.50498 23.2407 1.50436 23.2507 1.50436 22.7057C1.50436 21.5419 1.50436 20.3788 1.50436 19.2157C1.50751 19.0928 1.46846 18.9726 1.39373 18.8751C0.663731 17.8569 0.528106 16.7613 1.08123 15.6332C1.63436 14.5051 2.58811 13.9263 3.85061 13.8751C4.02172 13.8597 4.19387 13.8597 4.36498 13.8751C4.63436 13.9132 4.80873 13.7938 4.99311 13.6151C5.17748 13.4363 5.29998 13.2401 5.25811 12.9657C5.24438 12.8649 5.24438 12.7627 5.25811 12.6619C5.29811 12.3257 5.21748 12.0582 4.94123 11.8232C4.66498 11.5882 4.58311 11.2438 4.67811 10.8826C4.69152 10.8348 4.69411 10.7847 4.68567 10.7358C4.67724 10.6869 4.658 10.6405 4.62936 10.6001C4.26248 9.99443 4.23936 9.37131 4.59186 8.75944C4.94436 8.14756 5.48561 7.87506 6.18123 7.87506C6.99373 7.87506 7.80623 7.88006 8.61873 7.87506C9.08311 7.87131 9.44686 8.04131 9.64811 8.46631C9.84936 8.89131 9.77311 9.28881 9.44561 9.62756C9.37498 9.70131 9.37873 9.77881 9.37873 9.86319C9.37873 10.4644 9.35811 11.0663 9.38311 11.6669C9.41748 12.4832 9.12873 13.0919 8.32061 13.4363C8.46248 13.5682 8.59436 13.6788 8.71123 13.8038C8.78123 13.8788 8.85936 13.8732 8.94436 13.8751C9.37311 13.8876 9.80373 13.8388 10.2306 13.9032C10.8825 14.0013 11.3906 14.3344 11.765 14.8738C12.6181 16.1044 13.4731 17.3332 14.3187 18.5682C14.3543 18.6305 14.4074 18.6811 14.4713 18.7138C14.5353 18.7464 14.6074 18.7597 14.6787 18.7519C15.1469 18.7407 15.6162 18.7432 16.0837 18.7519C16.2175 18.7519 16.2937 18.7188 16.3525 18.5919C16.52 18.2319 16.7056 17.8807 16.8781 17.5238C16.9133 17.4368 16.9752 17.3632 17.0548 17.3135C17.1343 17.2638 17.2276 17.2405 17.3212 17.2469C19.1481 17.2507 20.975 17.2469 22.8019 17.2501C23.1769 17.2501 23.3469 17.5101 23.1769 17.8451C22.3244 19.5601 21.4689 21.2736 20.6106 22.9857C20.5759 23.0679 20.5166 23.1375 20.4409 23.1848C20.3651 23.2321 20.2766 23.2549 20.1875 23.2501C15.6981 23.2501 11.2094 23.2582 6.72061 23.2394C5.58436 23.2344 4.64748 22.7294 3.90811 21.8644C3.36811 21.2276 2.83123 20.5901 2.25436 19.9082ZM10.6625 18.5001C11.2125 18.0419 11.75 17.5913 12.2912 17.1457C12.3669 17.0832 12.3537 17.0382 12.3075 16.9732C11.8869 16.3732 11.4756 15.7663 11.0456 15.1738C10.8468 14.9076 10.5544 14.7267 10.2275 14.6676C9.81061 14.5801 9.38748 14.6457 8.96748 14.6232C8.85248 14.6169 8.84811 14.7057 8.82186 14.7713C8.62748 15.2544 8.44123 15.7413 8.24186 16.2232C8.11686 16.5319 7.82811 16.5894 7.58561 16.3607C7.44123 16.2244 7.30873 16.0751 7.12748 15.8857C7.12748 15.8857 7.10571 16.1037 6.76123 16.1037C6.61561 16.1037 6.37248 16.0088 6.37498 15.8882C6.20498 16.0644 6.08373 16.1963 5.95561 16.3219C5.66998 16.6007 5.39873 16.5469 5.24748 16.1813C5.12248 15.8788 5.00436 15.5744 4.88061 15.2719C4.79248 15.0576 4.75561 14.7619 4.59436 14.6551C4.43311 14.5482 4.14186 14.6182 3.90686 14.6232C2.90311 14.6438 2.14936 15.0888 1.72686 16.0038C1.30436 16.9188 1.45498 17.7676 2.07998 18.5394C2.41311 18.9519 2.76748 19.3476 3.10373 19.7588C3.19936 19.8763 3.25936 19.8838 3.37748 19.7832C3.90498 19.3313 4.43998 18.8851 4.97811 18.4494C5.10811 18.3451 5.08373 18.2857 4.99436 18.1782C4.88061 17.9219 5 18.0001 5.22656 17.7305C5.35219 17.6049 5.67811 17.6087 5.77561 17.7305C6.37498 18.6642 6.19436 18.4769 7.01373 19.5101C7.04603 19.5614 7.09338 19.6014 7.14931 19.6248C7.20524 19.6482 7.26703 19.6537 7.32623 19.6407C7.82623 19.5676 8.32998 19.5007 8.83373 19.4451C8.98498 19.4288 9.00123 19.3594 8.99998 19.2319C8.99436 18.6151 9.00438 18.6169 9 18.0001C9 17.7813 9.26375 17.5763 9.5 17.5001C9.73625 17.4238 10.1075 17.6613 10.2275 17.8438C10.5256 18.2963 10.355 18.0388 10.6625 18.5001ZM15.2306 22.5001C16.8087 22.5001 18.345 22.5001 19.8819 22.5038C20.0331 22.5038 20.0594 22.4107 20.1069 22.3163C20.7398 21.0509 21.3729 19.7849 22.0062 18.5182C22.0887 18.3538 22.1681 18.1876 22.2562 18.0026C20.6856 18.0026 19.1425 18.0026 17.5994 17.9988C17.4744 17.9988 17.4419 18.0694 17.4 18.1538C17.1267 18.7046 16.8527 19.2546 16.5781 19.8038C16.1362 20.6876 15.6906 21.5769 15.2306 22.4963V22.5001ZM6.27061 19.7769C6.04936 19.5007 5.84373 19.2488 5.64561 18.9913C5.56936 18.8938 5.52686 18.9713 5.47811 19.0113C4.93248 19.4651 4.38998 19.9232 3.83936 20.3713C3.72623 20.4638 3.75061 20.5201 3.82998 20.6107C4.04623 20.8569 4.25248 21.1107 4.46748 21.3607C5.42623 22.4651 6.72373 22.7788 8.08311 22.2357C9.03623 21.8551 9.99186 21.4788 10.9412 21.0882C11.1694 20.9938 11.375 20.9701 11.5787 21.1182C12.0312 21.4482 12.5456 21.3757 13.09 21.3644C12.8112 21.0313 12.5931 20.6894 12.2962 20.4157C12.1008 20.2283 11.8652 20.0878 11.6073 20.0049C11.3495 19.9221 11.0762 19.8991 10.8081 19.9376C9.29248 20.1313 7.77873 20.3376 6.26436 20.5394C6.07373 20.5651 5.82311 20.6813 5.70936 20.5813C5.59561 20.4813 5.62748 20.2194 5.59498 20.0282C5.59498 20.0201 5.59498 20.0126 5.59498 20.0051C5.56498 19.9019 5.61123 19.8719 5.70998 19.8619C5.88436 19.8419 6.06248 19.8088 6.27061 19.7769ZM8.62498 10.0101C8.35623 10.1582 8.11498 10.1151 7.86811 10.0582C7.54248 9.98256 7.21186 9.92568 6.88436 9.85506C6.78186 9.83256 6.75561 9.85506 6.74936 9.96381C6.73849 10.2113 6.63167 10.4449 6.45154 10.615C6.2714 10.7851 6.0321 10.8784 5.78436 10.8751C5.74498 10.8751 5.70623 10.8751 5.66686 10.8751C5.61178 10.87 5.55656 10.8833 5.50985 10.9129C5.46314 10.9425 5.42758 10.9868 5.40873 11.0388C5.38931 11.0862 5.38551 11.1385 5.39787 11.1882C5.41024 11.2379 5.43813 11.2823 5.47748 11.3151C5.58248 11.4201 5.68061 11.5319 5.78998 11.6276C5.86457 11.69 5.92296 11.7696 5.96017 11.8595C5.99739 11.9494 6.01233 12.0469 6.00373 12.1438C5.99123 12.5026 5.99936 12.8619 6.00373 13.2207C6.00373 13.2832 5.98498 13.3457 6.02686 13.4019L6.76123 14.3826L7.48998 13.4626C7.08686 13.3376 6.78123 13.1357 6.56498 12.8101C6.39373 12.5526 6.39436 12.5519 6.66186 12.4188C6.74037 12.3849 6.81657 12.3458 6.88998 12.3019C7.02811 12.2076 7.10061 12.2226 7.19061 12.3832C7.27257 12.5222 7.3974 12.6309 7.54636 12.693C7.69533 12.7551 7.86042 12.7672 8.01686 12.7276C8.36061 12.6419 8.61498 12.3613 8.62123 12.0126C8.63311 11.3594 8.62498 10.7044 8.62498 10.0101ZM15.8919 19.5001C15.3644 19.5001 14.8675 19.4919 14.3706 19.5001C14.2699 19.5073 14.1692 19.4861 14.08 19.4388C13.9908 19.3915 13.9167 19.32 13.8662 19.2326C13.5537 18.7657 13.2237 18.3119 12.9137 17.8438C12.8231 17.7076 12.7687 17.7132 12.6537 17.8113C12.1669 18.2263 11.6719 18.6319 11.1812 19.0426C11.1494 19.0694 11.0937 19.0888 11.1187 19.1638L11.2437 19.1769C11.9394 19.2501 12.5437 19.5219 12.9937 20.0626C13.3244 20.4619 13.7062 20.8276 13.9262 21.3126C13.9348 21.3329 13.9494 21.3501 13.9681 21.3619C14.0681 21.4169 15.0169 21.1969 15.0869 21.1051C15.0901 21.0979 15.0931 21.0906 15.0956 21.0832C15.3575 20.5626 15.6181 20.0438 15.8919 19.5001ZM7.37498 8.62506C6.94686 8.62506 6.51748 8.61506 6.08936 8.62506C5.92512 8.62908 5.76431 8.6728 5.62065 8.75249C5.477 8.83219 5.35477 8.94548 5.26442 9.08269C5.17408 9.21989 5.1183 9.37694 5.10185 9.54039C5.08541 9.70385 5.10878 9.86885 5.16998 10.0213C5.19623 10.0838 5.20561 10.1994 5.31311 10.1707C5.48186 10.1257 5.65498 10.1419 5.82123 10.1113C5.87956 10.1002 5.93144 10.0672 5.96629 10.0191C6.00113 9.97103 6.01631 9.91146 6.00873 9.85256C5.99998 9.70506 6.00311 9.55631 6.00873 9.40819C6.01811 9.11006 6.21248 8.95506 6.50873 9.01256C6.91311 9.09194 7.32123 9.15944 7.71936 9.26256C8.05527 9.36197 8.41562 9.33825 8.73561 9.19569C8.89186 9.12631 9.02748 9.05819 9.00248 8.86881C8.97686 8.66756 8.82811 8.61881 8.64311 8.61881C8.21498 8.62944 7.79436 8.62506 7.37498 8.62506ZM9.55748 22.4951H14.0625C14.4375 22.4951 14.4375 22.4951 14.5512 22.1201C13.3237 22.1201 12.0987 22.1419 10.875 22.1101C10.3806 22.0982 9.97873 22.2951 9.55561 22.4963L9.55748 22.4951ZM5.77561 15.4807C5.92748 15.3151 6.04311 15.1794 6.16998 15.0551C6.23936 14.9869 6.24561 14.9394 6.18436 14.8619C6.02561 14.6613 5.87936 14.4507 5.71936 14.2513C5.67498 14.1957 5.64373 14.0507 5.54686 14.1263C5.44998 14.2019 5.28248 14.2632 5.35936 14.4519C5.49248 14.7726 5.6206 15.0951 5.77561 15.4807ZM7.93748 14.1126L7.56248 14.5813C7.24061 14.9857 7.24061 14.9857 7.62498 15.3407C7.63071 15.346 7.63614 15.3516 7.64123 15.3576C7.71498 15.4451 7.75498 15.4326 7.79436 15.3232C7.87415 15.0798 7.97041 14.8422 8.08248 14.6119C8.20123 14.3863 8.15498 14.2376 7.93748 14.1126ZM10.2569 19.2376L9.75311 18.4876V18.8588C9.74998 19.3313 9.74998 19.3313 10.2544 19.2394L10.2569 19.2376Z" fill="white"/>
<path d="M18.6711 3.0038C18.0011 2.82193 17.5386 3.13505 17.1461 3.63255C17.0393 3.75706 16.9236 3.87362 16.7998 3.9813C16.5948 4.17568 16.4329 4.17943 16.2011 3.99443C15.7373 3.62505 15.2673 3.26255 14.8154 2.8788C14.6579 2.74505 14.5598 2.7538 14.4079 2.8788C14.0954 3.13505 13.7629 3.37068 13.4373 3.61255C13.1804 3.80005 13.0911 3.80568 12.8273 3.63005C12.2173 3.22443 11.6061 2.81755 10.9998 2.40818C10.9562 2.37282 10.9025 2.35209 10.8464 2.34895C10.7903 2.34581 10.7346 2.36041 10.6873 2.39068C10.1129 2.68568 9.53107 2.9663 8.95732 3.26193C8.83544 3.32443 8.78482 3.3288 8.71669 3.1913C8.45919 2.6738 8.45232 2.67568 8.96669 2.41568C9.50857 2.14255 10.0561 1.87943 10.5917 1.5963C10.8142 1.47943 10.9942 1.49943 11.1973 1.6388C11.7692 2.03193 12.3548 2.4038 12.9236 2.80068C13.0767 2.90693 13.1667 2.89005 13.2986 2.78193C13.6204 2.52318 13.9573 2.28193 14.2879 2.03193C14.5736 1.81755 14.6754 1.81693 14.9492 2.03505C15.4067 2.40005 15.8661 2.76318 16.3186 3.13443C16.4279 3.22443 16.4936 3.2363 16.5973 3.12255C16.8192 2.8813 17.0611 2.6588 17.2886 2.42255C17.3409 2.36502 17.4053 2.3197 17.4771 2.28978C17.549 2.25987 17.6265 2.24609 17.7042 2.24943C18.1879 2.2563 18.6723 2.24943 19.1561 2.25443C19.2132 2.25779 19.2704 2.24831 19.3234 2.22668C19.3764 2.20505 19.4239 2.17182 19.4623 2.12943C19.9623 1.62255 20.4686 1.12568 20.9623 0.617554C21.0692 0.508804 21.1254 0.504428 21.2348 0.614428C21.6323 1.0163 21.6367 1.0113 21.2348 1.41505C20.7817 1.86755 20.3242 2.31568 19.8792 2.77568C19.811 2.85545 19.7249 2.91786 19.6278 2.95774C19.5308 2.99763 19.4256 3.01384 19.3211 3.00505C19.1092 2.99193 18.8898 3.0038 18.6711 3.0038Z" fill="white"/>
<path d="M18.7501 7.50369C18.7501 6.55161 18.7501 5.59973 18.7501 4.64807C18.7501 4.23807 18.8626 4.12807 19.2807 4.12744C19.5851 4.12744 19.8894 4.12744 20.1932 4.12744C20.4826 4.13057 20.6226 4.26932 20.6232 4.56057C20.6232 6.5189 20.6232 8.47723 20.6232 10.4356C20.6232 10.7374 20.4819 10.8731 20.1744 10.8731C19.8469 10.8756 19.5192 10.8756 19.1913 10.8731C18.8876 10.8731 18.7538 10.7337 18.7538 10.4274C18.7484 9.45328 18.7471 8.47869 18.7501 7.50369ZM19.8751 7.52494C19.8751 6.70494 19.8707 5.88494 19.8788 5.06494C19.8788 4.91307 19.8407 4.87119 19.6876 4.87119C19.5344 4.87119 19.4963 4.91307 19.4963 5.06494C19.5026 6.68994 19.5026 8.31494 19.4963 9.93994C19.4963 10.0918 19.5344 10.1337 19.6876 10.1337C19.8407 10.1337 19.8801 10.0918 19.8788 9.93994C19.8676 9.13369 19.8751 8.32932 19.8751 7.52494Z" fill="white"/>
<path d="M16.4999 9.00002C16.4999 8.04168 16.4999 7.0821 16.4999 6.12127C16.4999 5.75064 16.6249 5.62752 16.9856 5.62627C17.3056 5.62627 17.6256 5.62314 17.9456 5.62627C18.2331 5.62939 18.3731 5.76939 18.3731 6.06377C18.3731 8.0221 18.3731 9.98044 18.3731 11.9388C18.3731 12.2313 18.2337 12.3719 17.9462 12.3763C17.6112 12.3806 17.2756 12.38 16.9399 12.3763C16.6374 12.3763 16.5024 12.2356 16.5024 11.9288C16.4983 10.9525 16.4974 9.97627 16.4999 9.00002ZM17.6249 9.02189C17.6249 8.20189 17.6206 7.38189 17.6287 6.56189C17.6287 6.40689 17.5868 6.37127 17.4362 6.36939C17.2856 6.36752 17.2487 6.41502 17.2487 6.56502C17.2541 8.19002 17.2541 9.81502 17.2487 11.44C17.2487 11.595 17.2906 11.6306 17.4412 11.6325C17.5918 11.6344 17.6287 11.5869 17.6287 11.4375C17.6187 10.6319 17.6249 9.82752 17.6249 9.02314V9.02189Z" fill="white"/>
<path d="M13.875 7.15127C13.875 7.97794 13.875 8.80481 13.875 9.6319C13.875 9.9994 13.75 10.1244 13.3862 10.1256C13.0737 10.1256 12.7612 10.1256 12.4487 10.1256C12.1362 10.1256 12 9.9894 12 9.68815C12 7.97982 12 6.27148 12 4.56315C12 4.27127 12.1394 4.13252 12.4287 4.1294C12.7621 4.12565 13.0973 4.12565 13.4344 4.1294C13.7363 4.1294 13.8719 4.27002 13.8719 4.57815C13.875 5.43752 13.875 6.29315 13.875 7.15127ZM13.125 7.12627C13.125 6.43877 13.1206 5.75127 13.1287 5.06377C13.1287 4.91127 13.0906 4.87065 12.9375 4.87002C12.7844 4.8694 12.7462 4.91252 12.75 5.0644C12.7563 6.4394 12.7563 7.8144 12.75 9.1894C12.75 9.3419 12.7887 9.38315 12.9412 9.38315C13.0937 9.38315 13.1337 9.34127 13.1287 9.1894C13.12 8.50002 13.125 7.81252 13.125 7.12502V7.12627Z" fill="white"/>
<path d="M9.75014 5.06249C9.75014 4.64937 9.75014 4.23624 9.75014 3.82249C9.75014 3.51562 9.88639 3.37874 10.1876 3.37624C10.5233 3.37312 10.8583 3.37249 11.1933 3.37624C11.4814 3.37937 11.6208 3.51937 11.6214 3.81062C11.6239 4.64395 11.6239 5.47728 11.6214 6.31062C11.6214 6.60187 11.4814 6.74249 11.1939 6.74812C10.8508 6.75187 10.5064 6.75249 10.1651 6.74812C9.89139 6.74437 9.75201 6.60187 9.74951 6.32499C9.75014 5.90687 9.75014 5.48562 9.75014 5.06249ZM10.5001 5.06249C10.5001 5.32812 10.5114 5.59374 10.4958 5.85812C10.4851 6.03249 10.5908 5.99937 10.687 5.99937C10.7833 5.99937 10.8826 6.03187 10.8789 5.85874C10.8668 5.32832 10.8668 4.79749 10.8789 4.26624C10.8826 4.09312 10.7833 4.12562 10.687 4.12562C10.5908 4.12562 10.4851 4.09249 10.4958 4.26624C10.5126 4.53312 10.5001 4.79937 10.5001 5.06249Z" fill="white"/>
<path d="M14.25 7.29251C14.25 6.89501 14.25 6.49751 14.25 6.10001C14.25 5.76001 14.3788 5.62939 14.7113 5.62751C15.0438 5.62564 15.3657 5.62439 15.6932 5.62751C15.9825 5.63064 16.1219 5.76939 16.1232 6.06001C16.1257 6.89335 16.1257 7.72668 16.1232 8.56001C16.1232 8.85251 15.9838 8.99376 15.6975 8.99751C15.3542 9.0021 15.0111 9.0021 14.6682 8.99751C14.3944 8.99376 14.2538 8.85251 14.2507 8.57626C14.2463 8.15001 14.25 7.72126 14.25 7.29251ZM15.375 7.33126C15.375 7.09751 15.375 6.86314 15.375 6.62876C15.375 6.49751 15.425 6.36126 15.1819 6.36626C14.9563 6.37126 15.0013 6.49126 15.0013 6.61626C15.0013 7.0771 15.0013 7.53772 15.0013 7.99814C15.0013 8.12939 14.9519 8.26564 15.1944 8.26064C15.42 8.25564 15.375 8.13564 15.3757 8.01064L15.375 7.33126Z" fill="white"/>
</svg>
