<svg width="35" height="35" viewBox="0 0 35 35" fill="none" xmlns="http://www.w3.org/2000/svg">
<path d="M17.4923 30.6196C15.2838 30.6196 13.0735 30.5868 10.866 30.6306C9.19343 30.6634 8.47155 29.833 8.22272 28.6044C7.80345 26.5408 7.81986 24.5028 9.13418 22.6899C9.91827 21.5826 11.0823 20.8024 12.4045 20.4979C13.086 20.3291 13.806 20.4218 14.4225 20.7576C16.466 21.8368 18.5104 21.8405 20.5557 20.7686C21.3596 20.3466 22.1844 20.3274 23.0321 20.6145C25.4019 21.4184 26.9268 23.5312 26.976 26.1125C26.9924 26.9638 27.0452 27.8224 26.7846 28.6536C26.5239 29.4849 26.1256 30.2304 25.1995 30.513C24.9261 30.591 24.6425 30.6272 24.3583 30.6205C22.0705 30.6187 19.7818 30.6184 17.4923 30.6196Z" fill="#0094FF"/>
<path d="M17.5228 18.9511C13.907 18.9511 10.9475 16.0344 10.9402 12.4624C10.9324 11.5901 11.0984 10.7251 11.4284 9.91766C11.7585 9.11023 12.246 8.37661 12.8625 7.75956C13.4791 7.14252 14.2123 6.6544 15.0195 6.32369C15.8266 5.99298 16.6915 5.82629 17.5638 5.83334C21.133 5.84155 24.057 8.80561 24.0597 12.4168C24.0625 16.008 21.1203 18.9483 17.5228 18.9511Z" fill="#0094FF"/>
<path d="M11.2887 18.5336C10.2997 18.8652 9.38467 19.3859 8.59438 20.0667C7.25843 21.2063 6.34926 22.7659 6.01587 24.49C5.97212 24.7078 5.90923 24.8545 5.65129 24.7971C5.58357 24.7875 5.51484 24.7875 5.44712 24.7971C3.85845 24.9001 3.18397 24.1318 2.99438 22.7482C2.81209 21.453 2.79933 20.1314 3.43462 18.91C4.07264 17.6741 5.06978 16.8601 6.41145 16.4855C6.70166 16.3989 7.0061 16.3704 7.30734 16.4017C7.60858 16.433 7.90069 16.5234 8.16691 16.6678C8.7662 16.9966 9.42315 17.207 10.1019 17.2876C10.1521 17.2873 10.2015 17.2994 10.2457 17.323C10.2899 17.3465 10.3276 17.3808 10.3553 17.4225C10.6289 17.8229 10.9415 18.1951 11.2887 18.5336Z" fill="#0066FF"/>
<path d="M32.0655 21.5176C32.0983 22.2468 32.0591 22.9267 31.7839 23.573C31.4448 24.3705 30.8515 24.7797 29.9874 24.7934C29.6921 24.798 29.343 24.8845 29.1151 24.7588C28.8736 24.6266 28.9429 24.2274 28.8599 23.9494C28.1052 21.4052 26.4974 19.643 24.0365 18.6629C23.7722 18.5581 23.7138 18.4998 23.9453 18.2847C24.2443 18.0049 24.4156 17.5728 24.7319 17.3559C25.0482 17.139 25.4921 17.1736 25.8749 17.0761C26.2016 16.9789 26.516 16.8444 26.8119 16.675C27.099 16.523 27.4139 16.4305 27.7377 16.4033C28.0614 16.376 28.3874 16.4145 28.6959 16.5164C29.6474 16.7941 30.4864 17.3663 31.0923 18.1508C31.6982 18.9352 32.0399 19.8915 32.0683 20.8823C32.0719 21.1093 32.0655 21.3371 32.0655 21.5176Z" fill="#0066FF"/>
<path d="M22.0112 4.86348C24.0082 4.05775 25.9059 4.20085 27.6012 5.54889C29.3749 6.95983 30.0211 8.85202 29.5071 11.0541C29.0513 12.9855 27.799 14.2442 25.9159 14.926C26.8802 10.6704 25.5732 7.34173 22.0112 4.86348Z" fill="#0066FF"/>
<path d="M12.9891 4.86621C9.41805 7.34629 8.12105 10.6786 9.08173 14.9296C7.12209 14.2096 5.84696 12.8779 5.44774 10.8472C5.0148 8.64147 5.73303 6.78391 7.53863 5.43951C9.21389 4.19264 11.0614 4.0778 12.9891 4.86621Z" fill="#0066FF"/>
</svg>
